<svg xmlns="http://www.w3.org/2000/svg" viewBox="0 0 50 50"><path d="M30.6,38.3V36.6c0-.1,0-.1-.1-.2a7.3,7.3,0,0,0-2.5.8,1.3,1.3,0,0,1-1.8-.6,1.3,1.3,0,0,1-.1-.6V27.4l-.6-.3-1.1-.5h0l-1.7-.9V24a3.1,3.1,0,0,0,1.1-.9,4.6,4.6,0,0,0,1.5-3l.6-.2a2,2,0,0,0,.7-2.8,1.6,1.6,0,0,0-.7-.7l-.5-.2h-.1V13.7l3.1-1v2.1a1.5,1.5,0,0,0-.8,1.8,1.4,1.4,0,0,0,1.7.8,1.4,1.4,0,0,0,.9-1.7,2,2,0,0,0-.9-.9V12.4h0a.3.3,0,0,0,.3-.5c0-.2-.1-.3-.2-.3L20.5,8.8h-.3l-8.9,2.8c-.2.1-.4.3-.3.5a.3.3,0,0,0,.3.3l4,1.3v2.1h0v.4l-.6.2a2.3,2.3,0,0,0-.7.7h-.1a2,2,0,0,0,.9,2.6h.1l.3.2h.2A5,5,0,0,0,17.9,24v1.6l-1.6.9h-.1l-1,.5C12,28.6,10.3,29.4,10,38.3a.4.4,0,0,0,.4.4H30.2a.5.5,0,0,0,.4-.5ZM25.3,17.1h.2a1.3,1.3,0,0,1,.4,1.6c-.1.2-.3.3-.4.4h-.2Zm-10,2.1h-.1a1,1,0,0,1-.4-1.5h0a.8.8,0,0,1,.4-.4h.1Zm2.1,3.3a4,4,0,0,1-1.2-2.9h0V16.1a28.2,28.2,0,0,1,8.2,0v3.5h0a4.1,4.1,0,0,1-2.3,3.7h0a4.3,4.3,0,0,1-3.5,0h0a3.6,3.6,0,0,1-1.2-.8Zm.9,12.3L15.2,28h.3l.8-.4L18,29.9h0a.4.4,0,0,0,.6,0h0v.2c.1.2.2.5.4.6Zm.1-5.8-1.3-1.9,1.2-.7,1.4,1.4Zm.4-3.2V24.4a5.1,5.1,0,0,0,3,0v1.4l-1.5,1.4Zm3.6.6,1.2.7L22.2,29,21,27.8Zm-.1,8.4-.7-4.1a.8.8,0,0,0,.4-.6h0v-.2h0c.2.2.5.2.6,0h.1l1.6-2.4.8.4h.3ZM18.7,18.2a.5.5,0,0,1-.5.5.5.5,0,0,1-.4-.5h0a.4.4,0,0,1,.4-.4.5.5,0,0,1,.5.4Zm3.3,0h0a.4.4,0,0,1,.4-.4.4.4,0,0,1,.4.4h0c0,.3-.1.5-.4.5A.5.5,0,0,1,22,18.2Zm-3.1,2.9c.1-.2.4-.2.6-.1h0l.8.3a1.1,1.1,0,0,0,.8-.3.6.6,0,0,1,.7.1.5.5,0,0,1-.2.6,2,2,0,0,1-1.3.4,1.7,1.7,0,0,1-1.3-.4c-.2-.1-.2-.4-.1-.6Z" style="fill:#072c49"/><path d="M30.9,27.3a7.6,7.6,0,0,1,2.1.3.6.6,0,0,1,.3.6.7.7,0,0,1-.6.3,5.7,5.7,0,0,0-1.8-.3,3.7,3.7,0,0,0-1.8.2c-.2.1-.5,0-.5-.2a.5.5,0,0,1,.2-.6,7.6,7.6,0,0,1,2.1-.3Zm2.1,4a7.6,7.6,0,0,0-2.1-.3,5.1,5.1,0,0,0-2.1.3.4.4,0,0,0-.2.5.3.3,0,0,0,.5.3,5.5,5.5,0,0,1,3.6,0,.4.4,0,0,0,.6-.3A.5.5,0,0,0,33,31.3Zm0,1.8a7.5,7.5,0,0,0-4.2,0,.5.5,0,0,0-.2.6c0,.2.3.3.5.3a5.6,5.6,0,0,1,3.6,0,.7.7,0,0,0,.6-.3.6.6,0,0,0-.3-.6Zm0-3.6a5.7,5.7,0,0,0-4.2,0c-.2,0-.3.3-.2.5a.4.4,0,0,0,.5.3h0a5.5,5.5,0,0,1,3.6,0c.2.1.5-.1.6-.3s-.1-.5-.3-.5Zm9-2.9V36a.4.4,0,0,1-.4.4h-.3a6.5,6.5,0,0,0-6.6,0c-.2.1-.3.1-.4,0a7.2,7.2,0,0,0-3.4-.9,6.8,6.8,0,0,0-3.3.9.5.5,0,0,1-.6-.2h0c0-.1-.1-.1-.1-.2V26.6c0-.1.2-.3.3-.4a8.7,8.7,0,0,1,3.7-.9,8,8,0,0,1,3.6.9,7.3,7.3,0,0,1,3.5-.9,7.7,7.7,0,0,1,3.8,1c.1,0,.2.2.2.3Zm-8,.3a6.7,6.7,0,0,0-3.1-.7,7.3,7.3,0,0,0-3.1.7v8.4a8.5,8.5,0,0,1,3.1-.6,7.8,7.8,0,0,1,3.1.6Zm7.1,0a6.7,6.7,0,0,0-3.1-.7,7.3,7.3,0,0,0-3.1.7v8.4a8.3,8.3,0,0,1,6.2,0Zm-5.4,1.3a.4.4,0,0,0,.5.2,3.7,3.7,0,0,1,1.8-.2,5.2,5.2,0,0,1,1.8.3.6.6,0,0,0,.6-.3.5.5,0,0,0-.3-.6,7.6,7.6,0,0,0-2.1-.3,6.4,6.4,0,0,0-2,.3.4.4,0,0,0-.3.6Zm4.4,4.9a7.6,7.6,0,0,0-2.1-.3,6.4,6.4,0,0,0-2,.3.4.4,0,0,0-.3.6.5.5,0,0,0,.5.3h0a5.7,5.7,0,0,1,1.8-.3,5.2,5.2,0,0,1,1.8.3.5.5,0,1,0,.3-.9Zm0-3.6a5.2,5.2,0,0,0-2.1-.4,4.5,4.5,0,0,0-2,.4.3.3,0,0,0-.3.5c.1.2.3.4.5.3A5.7,5.7,0,0,1,38,30a5.2,5.2,0,0,1,1.8.3.5.5,0,0,0,.6-.3A.4.4,0,0,0,40.1,29.5Zm0,1.8A7.6,7.6,0,0,0,38,31a4.4,4.4,0,0,0-2,.3c-.3.1-.4.3-.3.5s.3.4.5.3h0a5.7,5.7,0,0,1,1.8-.3,5.2,5.2,0,0,1,1.8.3.4.4,0,0,0,.6-.3c.1-.2-.1-.4-.3-.5Zm-2.4-15a.5.5,0,0,0,.5-.4v-.2a.5.5,0,0,0-.5-.4.4.4,0,0,0-.4.4h0v.2a.4.4,0,0,0,.4.4Zm0,5.4h.5v.5a.5.5,0,0,0,.4.5.5.5,0,0,0,.5-.5v-.5h.5a.4.4,0,0,0,0-.8h-.5v-.5a.5.5,0,0,0-.5-.5.5.5,0,0,0-.4.5v.5h-.5a.4.4,0,0,0,0,.8Zm-4.2-1v.2a.4.4,0,0,0,.4.4.5.5,0,0,0,.5-.4h0v-.2a.5.5,0,0,0-.5-.4A.4.4,0,0,0,33.5,20.7Zm-.8-3.9h.5v.5a.4.4,0,0,0,.4.4c.3,0,.5-.1.5-.4v-.5h.5a.4.4,0,0,0,.4-.4.5.5,0,0,0-.4-.5h-.5v-.5a.5.5,0,0,0-.5-.4.4.4,0,0,0-.4.4v.5h-.5a.5.5,0,0,0-.4.5.4.4,0,0,0,.4.4ZM28.9,22h.5v.5a.4.4,0,1,0,.8,0V22h.5a.5.5,0,0,0,.5-.4.5.5,0,0,0-.5-.5h-.5v-.5a.4.4,0,1,0-.8,0v.5h-.5a.5.5,0,0,0-.5.5A.5.5,0,0,0,28.9,22Z" style="fill:#1d7cc0"/><circle cx="25" cy="25" r="24" style="fill:none;stroke:#1043e9;stroke-miterlimit:10"/></svg>