<svg width="24" height="25" viewBox="0 0 24 25" fill="none" xmlns="http://www.w3.org/2000/svg">
<g filter="url(#filter0_i_19_486)">
<path fill-rule="evenodd" clip-rule="evenodd" d="M22 12.5C22 18.0228 17.5228 22.5 12 22.5C6.47715 22.5 2 18.0228 2 12.5C2 6.97715 6.47715 2.5 12 2.5C17.5228 2.5 22 6.97715 22 12.5ZM16.0303 9.46967C16.3232 9.76256 16.3232 10.2374 16.0303 10.5303L11.0303 15.5303C10.7374 15.8232 10.2626 15.8232 9.96967 15.5303L7.96967 13.5303C7.67678 13.2374 7.67678 12.7626 7.96967 12.4697C8.26256 12.1768 8.73744 12.1768 9.03033 12.4697L10.5 13.9393L12.7348 11.7045L14.9697 9.46967C15.2626 9.17678 15.7374 9.17678 16.0303 9.46967Z" fill="url(#paint0_linear_19_486)"/>
</g>
<defs>
<filter id="filter0_i_19_486" x="2" y="2.5" width="20" height="24" filterUnits="userSpaceOnUse" color-interpolation-filters="sRGB">
<feFlood flood-opacity="0" result="BackgroundImageFix"/>
<feBlend mode="normal" in="SourceGraphic" in2="BackgroundImageFix" result="shape"/>
<feColorMatrix in="SourceAlpha" type="matrix" values="0 0 0 0 0 0 0 0 0 0 0 0 0 0 0 0 0 0 127 0" result="hardAlpha"/>
<feOffset dy="4"/>
<feGaussianBlur stdDeviation="2"/>
<feComposite in2="hardAlpha" operator="arithmetic" k2="-1" k3="1"/>
<feColorMatrix type="matrix" values="0 0 0 0 0 0 0 0 0 0 0 0 0 0 0 0 0 0 0.25 0"/>
<feBlend mode="normal" in2="shape" result="effect1_innerShadow_19_486"/>
</filter>
<linearGradient id="paint0_linear_19_486" x1="12" y1="2.5" x2="12" y2="22.5" gradientUnits="userSpaceOnUse">
<stop stop-color="#3D6DFF"/>
<stop offset="1" stop-color="#0028A1"/>
</linearGradient>
</defs>
</svg>
