<svg xmlns="http://www.w3.org/2000/svg" width="43.104" height="43.104"><path d="M11.973 33.525a2.4 2.4 0 01-2.395-2.395V19.157a2.395 2.395 0 114.789 0V31.13a2.4 2.4 0 01-2.394 2.395zm9.579 0a2.4 2.4 0 01-2.395-2.395V11.973a2.395 2.395 0 014.789 0V31.13a2.4 2.4 0 01-2.394 2.395zm9.579 0a2.4 2.4 0 01-2.395-2.395v-4.789a2.395 2.395 0 114.789 0v4.789a2.4 2.4 0 01-2.395 2.395zm4.789 4.789H7.184a2.4 2.4 0 01-2.395-2.394V7.184a2.4 2.4 0 012.395-2.395H35.92a2.4 2.4 0 012.395 2.395V35.92a2.4 2.4 0 01-2.395 2.394zM38.314 0H4.789A4.8 4.8 0 000 4.789v33.525A4.8 4.8 0 004.789 43.1h33.525a4.8 4.8 0 004.786-4.786V4.789A4.8 4.8 0 0038.314 0z"/></svg>