<svg xmlns="http://www.w3.org/2000/svg" viewBox="0 0 50 50"><path d="M24,12.1a3.1,3.1,0,0,0,0,1.4c.3.5.4.2.4.2S24.8,12.2,24,12.1Z" style="fill:#344a5e"/><path d="M22.9,20.3l-.5-.4a1.4,1.4,0,0,0-.8,1.1c-.2.9-.5,1.9-.6,2.5s-4.7,9.2-4.7,9.2a2.8,2.8,0,0,0,.5,2.6,1,1,0,0,0,1.5.3l2-1.3.6-.4,2.4-5.2Z" style="fill:#425a6b"/><path d="M28.1,19s.2.2.6,0H32l-4.5,8.1-.9.6-.4-1.6V19.2A3,3,0,0,1,28.1,19Z" style="fill:#ced6e0"/><path d="M28.6,20.6v.5s.3,1.2.4,1.4-2.2,4.6-2.2,4.6l-.4-1.5s.4-1.8.6-2.5a7.1,7.1,0,0,1,.7-2.2A2.3,2.3,0,0,1,28.6,20.6Z" style="fill:#f05640"/><ellipse cx="30.7" cy="14.1" rx="0.7" ry="1.4" style="fill:#ffd15c"/><path d="M33.2,17.9a16.1,16.1,0,0,0,2.1.9L38.6,20a3.2,3.2,0,0,0-1.8,1.6,17,17,0,0,0-1.5,3.5l1.1,7.2.2,6.6H21s1.2-4.7,1.4-5.7-.4-7.5-.4-7.5-.7-3.5.4-5.7a11,11,0,0,1,2.2-1.1,18.6,18.6,0,0,0,2.3-.8L26,20.5l.5,7.4,5.2-7.2Z" style="fill:#344a5e"/><path d="M31.8,14.7v1.1a4.2,4.2,0,0,0,.3.9v.5l-3.6,2.6-.4-1s-1.7.1-1.9-.3a1.3,1.3,0,0,0-.5-.9,6.1,6.1,0,0,1-.9-2.1v-.7l-.4-.5c0-.1-.3-.3-.3-.4a15.5,15.5,0,0,1-.1-2.1.4.4,0,0,1,.4-.5l3.4-.4,3.1,1.2S31.8,12.4,31.8,14.7Z" style="fill:#ffdcaa"/><path d="M30.7,16.3a9.3,9.3,0,0,1-2.6,2.5l.4,1.1A9.6,9.6,0,0,0,30.7,16.3Z" style="fill:#ffbc81"/><path d="M27.3,19.1l2.2.3h.4a9.5,9.5,0,0,0-1.2,1.7l-.9-.2A4.4,4.4,0,0,0,27.3,19.1Z" style="fill:#f26f5a"/><path d="M28.3,19.3c-.2,0-.8-.1-1,.4a2.1,2.1,0,0,1-.5.7l-.4.2.4-1.8h1.3Z" style="fill:#f3f3f3"/><path d="M26.2,28.5v0Z" style="fill:#425a6b"/><path d="M26.8,24a11.3,11.3,0,0,1-.5,4.3,8.9,8.9,0,0,0-.2-1.1c-.5-1.1-2-5-2-5l1-1-.7-.6h.1a6.7,6.7,0,0,0,1.2-1.2l.6-.8.5.2h.1a10.8,10.8,0,0,0-.2,1.6A14.8,14.8,0,0,0,26.8,24Z" style="fill:#425a6b"/><path d="M31.7,15.9a1,1,0,0,1,0,.8c-.2.3-3.1,2.7-3.1,2.7a3.5,3.5,0,0,1,1.6,1.3l2.3-3.1a1.2,1.2,0,0,0-.2-.6C32.1,16.7,32,16.1,31.7,15.9Z" style="fill:#f3f3f3"/><path d="M32,16.4a.5.5,0,0,1,.2.7c-.2.5-1.7,2.3-2.5,3.5a39.1,39.1,0,0,0-2.3,4.3,37.7,37.7,0,0,0-1.5,3.8,76.3,76.3,0,0,1,6.2-6.3l-.4-1a6,6,0,0,0,1.4-.5s.3-1.9.4-2.4a.8.8,0,0,0-.1-.8,3.5,3.5,0,0,1-.8-1C32.6,16.5,32.4,16.3,32,16.4Z" style="fill:#425a6b"/><path d="M24,13.5a2.7,2.7,0,0,1-.3-1.8,4.8,4.8,0,0,1,2-2.7,4.1,4.1,0,0,1,3.6-.5,5,5,0,0,1,2,1.3,6.9,6.9,0,0,1,.8,3.7,9.2,9.2,0,0,1-.4,2.4s-.1-.9-.3-1.8-.9-1.6-1.1-.4v.9l-.4.2s-.5-2-1.3-2.4a.9.9,0,0,1-.9-.2c-.4-.4,0-.7-.9-.8a5.3,5.3,0,0,0-2.6.6A1.9,1.9,0,0,0,24,13.5Z" style="fill:#425a6b"/><path d="M39.2,32.9a1.3,1.3,0,0,1-1.3.7H36.4l-3.3-.3-5.4-1a32.1,32.1,0,0,0,1.1-5,1.9,1.9,0,0,1,1.3.1,36.1,36.1,0,0,0,4.7,1.2s.4-3.1.5-3.5a32,32,0,0,1,1.5-3.6,3.8,3.8,0,0,1,1.8-1.6,2.7,2.7,0,0,1,1.1,2.3,3.8,3.8,0,0,0-.1,2.1c.2.7.4.8.4,1.3s-.1,3.3,0,4.1A5.8,5.8,0,0,1,39.2,32.9Z" style="fill:#425a6b"/><path d="M8.9,23.8l1.8,6.1.5.6,10.2,4.2L28,33.2,17.6,28.8l-2.1-2.6h-.1L9.1,23.6C9,23.5,8.8,23.6,8.9,23.8Z" style="fill:#67c5b8"/><path d="M17.6,28.7l-6.4,1.8-.5-.6L8.9,23.8c-.1-.2,0-.3.2-.2l6.3,2.5h.1Z" style="fill:#48b9a5"/><polygon points="17.3 28.8 11.6 30.3 11.3 30.2 10.9 29.7 9.2 23.8 15.4 26.3 17.3 28.8" style="fill:#e8eace"/><path d="M15.6,21l-3.8,7c-.1.1,0,.3.1.4l9.3,4.3h.4l4.3-5.8c.1-.1,0-.3-.1-.4L16,20.9C15.9,20.8,15.7,20.9,15.6,21Z" style="fill:#f3f3dd"/><path d="M24.4,27.7a.4.4,0,0,0,.4.2l.7.2h.7s.2.4.4.4.4,1.1,1.3,1.3a4.3,4.3,0,0,0,.9-2.1,1,1,0,0,0,0-.8c-.2-.4-.5-1.3-.5-1.3l-.5-.3-1.4-.7h-.3a3.6,3.6,0,0,0-1.1.4l-.6.6a.2.2,0,0,0,.2.2v.2l-.4.3a.5.5,0,0,0,.9,0l.7-.2.6.3s0,.1-.2.1h-.6s-.2-.1-.3,0l-.9.3h-.6C24,27.2,23.8,27.7,24.4,27.7Z" style="fill:#ffdcaa"/><path d="M24.8,26h0v-.2h1.7l.4.2.4.2H27l-.5-.2h-.3a.1.1,0,0,0-.1-.1h-.4l-.5.2h-.3A.1.1,0,0,0,24.8,26Z" style="fill:#ffbc81"/><path d="M24.4,27.7h.3a.1.1,0,0,0,.1-.1h0a.1.1,0,0,0-.1.1Z" style="fill:#ffbc81"/><path d="M28.8,27.8A11.2,11.2,0,0,1,27.5,30l1.9.7C29.5,30.8,29.4,28.3,28.8,27.8Z" style="fill:#e8eae8"/><path d="M32.4,33.1v-5l-2.3-.7a2,2,0,0,0-1.3-.1,32.1,32.1,0,0,1-1.1,5Z" style="fill:#425a6b"/><polygon points="28.1 33.1 21.4 34.7 11.2 30.5 17.6 28.7 28.1 33.1" style="fill:#67c5b8"/><path d="M15.7,32.3l.9.4s.9-.4,1.1-.2.2.5.1.5-.5.3-.5.3H19a2.5,2.5,0,0,1,1-.1.6.6,0,0,1,.2.4.4.4,0,0,1,.5,0c.2,0,.1.4.1.4s.3.1.3.3-.4.2-.7.4l-.8.2-1,.2s-.4.1-.5,0l-.3-.2c-.2,0-.2-.1-.4-.2s-.5,0-.6-.2-.2-.3-.5-.5a1,1,0,0,1-.4-.8A1.9,1.9,0,0,1,15.7,32.3Z" style="fill:#ffdcaa"/><path d="M20.1,33.4H19c.1,0,.2,0,.2-.1h.6c.1,0,.2,0,.2-.1Z" style="fill:#ffbc81"/><path d="M20.7,33.8h0c-.1.1-.2.1-.2.2H19.3c-.1,0-.3,0-.3.1s-.1,0-.1.1h1.4a.1.1,0,0,0,.1-.1Z" style="fill:#ffbc81"/><path d="M16.6,32.7s-.2.1-.3-.2Z" style="fill:#ffbc81"/><circle cx="25" cy="25" r="24" style="fill:none;stroke:#1043e9;stroke-miterlimit:10"/></svg>