<svg xmlns="http://www.w3.org/2000/svg" viewBox="0 0 50 50"><circle cx="25" cy="25" r="24" style="fill:none;stroke:#1043e9;stroke-miterlimit:10"/><path d="M8.4,13.4a.6.6,0,0,0,0,1.1l10.2,3.1a.6.6,0,0,0,.8-.6V15.1a35.7,35.7,0,0,1,11.3,0V17a.6.6,0,0,0,.7.6l10.2-3c.5-.1.5-.9,0-1.1L25.2,7.2h-.4Z" style="fill:#171717"/><path d="M38,12.1l-1.1-.4v5.7H38Z" style="fill:#444"/><path d="M35.8,17.4v2.2a.6.6,0,0,0,.5.6h2.3a.6.6,0,0,0,.6-.6V17.4a.6.6,0,0,0-.6-.6H36.3A.6.6,0,0,0,35.8,17.4Z" style="fill:#444"/><path d="M9.2,30.8a.5.5,0,0,0,.5.8c4.2-.3,8.3-.5,12.3-.5a.7.7,0,0,0,.5-.9,2.4,2.4,0,0,1-.3-1.2A2.7,2.7,0,0,1,25,26.2,2.8,2.8,0,0,1,27.8,29a2.7,2.7,0,0,1-.3,1.2.5.5,0,0,0,.5.8l13.4.6a.5.5,0,0,0,.5-.8,9.6,9.6,0,0,1,0-8.6.5.5,0,0,0-.5-.8,209.7,209.7,0,0,1-31.7-.1.6.6,0,0,0-.5.9,9.6,9.6,0,0,1,0,8.6Z" style="fill:#64b5f6"/><path d="M9.2,21.7a10.5,10.5,0,0,0,0,9.6.6.6,0,0,0,1,0,10.5,10.5,0,0,0,0-9.6.5.5,0,0,0-.6-.4A.8.8,0,0,0,9.2,21.7Z" style="fill:#42a5f5"/><path d="M23.5,26.6a2.8,2.8,0,0,1,1.5-.4,2.3,2.3,0,0,1,1.4.4.5.5,0,0,0,.8-.5,20.2,20.2,0,0,1,.6-3.4.6.6,0,0,0-.6-.7H22.7a.6.6,0,0,0-.5.6v.2a13.3,13.3,0,0,1,.5,3.4.5.5,0,0,0,.8.5Z" style="fill:#da0037"/><path d="M21.9,29.8a.5.5,0,0,0-.5.3l-4.3,8.4a.6.6,0,0,0,.2.7h.6l1.8-.9.4,2.1a.4.4,0,0,0,.6.4c.2,0,.3-.1.4-.3l4.1-7.9a.5.5,0,0,0-.2-.7h-.2a2.7,2.7,0,0,1-2.4-1.7.5.5,0,0,0-.5-.3Z" style="fill:#da0037"/><path d="M27.5,30.1a2.7,2.7,0,0,1-2.3,1.7.5.5,0,0,0-.4.8l4,7.9a.6.6,0,0,0,1.1-.1l.4-2.1,1.8.9a.6.6,0,0,0,.8-.7l-4.3-8.4a.5.5,0,0,0-.5-.3.6.6,0,0,0-.6.3Z" style="fill:#da0037"/><path d="M25,25.1A3.9,3.9,0,1,0,28.9,29,3.9,3.9,0,0,0,25,25.1Z" style="fill:#ffb74d"/><path d="M25,13.5a33.5,33.5,0,0,0-6.3.5.6.6,0,0,0-.5.6v4.5a.6.6,0,0,0,.6.6h.1a31.8,31.8,0,0,1,12.3,0,.6.6,0,0,0,.6-.5h0V14.6a.5.5,0,0,0-.4-.6A33.9,33.9,0,0,0,25,13.5Z" style="fill:#444"/><path d="M9.4,24.2a5.1,5.1,0,0,0,0,4.5.3.3,0,0,0,.5,0,4.8,4.8,0,0,0,0-4.5c0-.1-.1-.2-.2-.1Z" style="fill:#90caf9"/><path d="M25,26.5a2.5,2.5,0,0,0,0,5,2.5,2.5,0,0,0,0-5Z" style="fill:#ffe0b2"/></svg>