<svg xmlns="http://www.w3.org/2000/svg" viewBox="0 0 50 50"><path d="M11.2,12H38.8a1.6,1.6,0,0,1,1.6,1.6V31a1.6,1.6,0,0,1-1.6,1.6H11.2A1.6,1.6,0,0,1,9.6,31V13.6A1.6,1.6,0,0,1,11.2,12Z" style="fill:#0593fc;fill-rule:evenodd"/><path d="M17,14.5H33a.6.6,0,0,1,.6.5A3.8,3.8,0,0,0,37,17.9a.6.6,0,0,1,.5.6v7.6a.5.5,0,0,1-.5.5,4,4,0,0,0-3.4,3,.6.6,0,0,1-.6.5H17a.6.6,0,0,1-.6-.5,4,4,0,0,0-3.4-3,.5.5,0,0,1-.5-.5V18.5a.6.6,0,0,1,.5-.6A3.8,3.8,0,0,0,16.4,15,.6.6,0,0,1,17,14.5Z" style="fill:#f5f8f9;fill-rule:evenodd"/><path d="M22.3,30.7l1.5.4,1.6.4L22.6,41.9c0,.1-.2.2-.3,0l-.8-1.6h-.3l-1.4.9c-.2.1-.3,0-.3-.2Z" style="fill:#ff4155;fill-rule:evenodd"/><path d="M28.5,30.7l-1.5.4-1.6.4,2.8,10.4c0,.1.2.2.3,0l.8-1.6h.3l1.4.9c.2.1.4,0,.3-.2Z" style="fill:#ff4155;fill-rule:evenodd"/><path d="M25.9,25.1l.7.8a.7.7,0,0,0,.6.1l1.1-.3a.6.6,0,0,1,.8.5l.2,1a.8.8,0,0,0,.5.5l1.1.3a.5.5,0,0,1,.4.8l-.3,1c0,.2,0,.5.2.6l.8.8a.7.7,0,0,1,0,1l-.8.7a.6.6,0,0,0-.1.6l.3,1.1a.7.7,0,0,1-.5.8l-1,.2c-.3.1-.5.3-.5.5l-.3,1.1a.6.6,0,0,1-.8.4l-1-.3c-.2,0-.5,0-.6.2l-.8.8a.7.7,0,0,1-1,0l-.7-.8c-.1-.2-.4-.2-.6-.2l-1.1.4a.7.7,0,0,1-.8-.5l-.2-1c-.1-.3-.3-.5-.5-.5l-1.1-.3a.7.7,0,0,1-.4-.8l.3-1a1,1,0,0,0-.2-.7l-.8-.7a.7.7,0,0,1,0-1l.8-.7a.7.7,0,0,0,.2-.6l-.4-1.1a.7.7,0,0,1,.5-.8l1-.2c.3-.1.5-.3.5-.5l.3-1.1a.6.6,0,0,1,.8-.5l1,.4a1,1,0,0,0,.7-.2l.7-.8a.7.7,0,0,1,1,0Z" style="fill:#fea832;fill-rule:evenodd"/><path d="M25.4,35.8a4.1,4.1,0,1,0-4.1-4.1A4.1,4.1,0,0,0,25.4,35.8Z" style="fill:#ffd23b;fill-rule:evenodd"/><path d="M18.4,19.3a.5.5,0,0,1-.5-.5.5.5,0,0,1,.5-.4H31.6a.5.5,0,0,1,.5.4.5.5,0,0,1-.5.5Z" style="fill:#bec7cf"/><path d="M15.4,22.6a.5.5,0,0,1-.5-.5.5.5,0,0,1,.5-.5H34.6a.5.5,0,0,1,.5.5.5.5,0,0,1-.5.5Z" style="fill:#bec7cf"/><path d="M27.5,26l.8-.3h.5L28,26A.4.4,0,0,1,27.5,26Zm1.3,11.6a.4.4,0,0,1-.5,0l-.8-.2H28Zm-3,.8a.8.8,0,0,1-.9-.1l-.7-.8h.1a.8.8,0,0,1,.7.2l.7.8Zm-3.1-.8h-.2a.7.7,0,0,1-.8-.5l-.2-1c-.1-.3-.3-.5-.5-.5l-1.1-.3a.7.7,0,0,1-.4-.8l.3-1a1,1,0,0,0-.2-.7l-.8-.7a.7.7,0,0,1,0-1l.8-.7a.7.7,0,0,0,.2-.6l-.4-1.1a.7.7,0,0,1,.5-.8l1-.2c.3-.1.5-.3.5-.5l.3-1.1a.6.6,0,0,1,.8-.5h.2l-.3.4-.2,1.1a1.2,1.2,0,0,1-.5.5l-1,.2a.6.6,0,0,0-.5.8l.3,1.1c.1.2,0,.4-.2.6l-.8.7a.9.9,0,0,0,0,1l.8.7a.7.7,0,0,1,.2.7l-.3,1a.7.7,0,0,0,.5.8l1,.3a.5.5,0,0,1,.5.5l.3,1a.5.5,0,0,0,.2.4ZM24,26h.2l.7-.8a.8.8,0,0,1,.9-.1.1.1,0,0,0-.1.1l-.8.8a.7.7,0,0,1-.6.2Z" style="fill:#e5972d;fill-rule:evenodd"/><path d="M25.4,27.6h.4a4.1,4.1,0,0,0,0,8.2h-.4a4.1,4.1,0,0,1,0-8.2Z" style="fill:#e6bd35;fill-rule:evenodd"/><path d="M21.5,36.1,20.2,41l-.4.2c-.2.1-.3,0-.3-.2l1.4-5.3H21A.7.7,0,0,1,21.5,36.1Zm1.2,5.4v.4c0,.1-.2.2-.3,0l-.7-1.4.3-.2h.3Z" style="fill:#e63b4d;fill-rule:evenodd"/><path d="M27,37.3l1.2,4.6c0,.1.2.2.3,0l.2-.4-1.1-4.1H27Zm2.9,3.2,1.1.7c.2.1.4,0,.3-.2h0l-1.1-.7h-.3Z" style="fill:#e63b4d;fill-rule:evenodd"/><path d="M11.2,12h1.4A1.6,1.6,0,0,0,11,13.6V31a1.6,1.6,0,0,0,1.6,1.6H11.2A1.6,1.6,0,0,1,9.6,31V13.6A1.6,1.6,0,0,1,11.2,12Z" style="fill:#0584e3;fill-rule:evenodd"/><circle cx="25" cy="25" r="24" style="fill:none;stroke:#1043e9;stroke-miterlimit:10"/></svg>