<svg xmlns="http://www.w3.org/2000/svg" viewBox="0 0 50 50"><circle cx="25" cy="25" r="24" style="fill:none;stroke:#1043e9;stroke-miterlimit:10"/><path d="M21.7,15.2l1.2.4H20.6l-1.8-.3h-1a11.3,11.3,0,0,0,.4-1.5l2.3,1,.6.3Z" style="fill:#8aabff"/><path d="M24.2,6V9.3a11.6,11.6,0,0,0-4-.3A6.1,6.1,0,0,1,24.2,6Z" style="fill:#8aabff"/><path d="M21.2,10.6a6.1,6.1,0,0,1,3,.5v4.3l-.4-.2-1.4-.6-.6-.3h0a24.4,24.4,0,0,1-3.3-1.7c.2-.7.5-1.2.7-1.8h.1L21.5,12h.2a.3.3,0,0,0,.3-.3h0l-.2-.2-1.5-.8h.9Z" style="fill:#8aabff"/><path d="M24.2,16.5v6.8h-.4a45.3,45.3,0,0,1-5.3-.5h-.6l-.9-.2V21.4c0-.2.1-.4.1-.6a20.7,20.7,0,0,1,.6-5h.1l2.3.4h.7l3,.2Z" style="fill:#8aabff"/><path d="M24.2,30.8v7.6c-2.5-.3-4.9-3.4-6.2-8.2A62,62,0,0,0,24.2,30.8Z" style="fill:#8aabff"/><path d="M24.2,24v6h-.4a48.7,48.7,0,0,1-5.5-.6h-.5a1.1,1.1,0,0,0-.1-.5,3.6,3.6,0,0,0-.2-1v-.3a1.3,1.3,0,0,1-.1-.6c-.2-1.2-.3-2.4-.4-3.7l.8.2h.6a47.1,47.1,0,0,0,5.4.5Z" style="fill:#8aabff"/><path d="M21.7,38.1A16.3,16.3,0,0,1,9.4,27.6a32.1,32.1,0,0,0,7.2,2.3l.7.2C18.2,33.8,19.8,36.7,21.7,38.1Z" style="fill:#8aabff"/><path d="M17,29.3h-.3A25.8,25.8,0,0,1,9,26.5a15.6,15.6,0,0,1-.6-4.4V20.6a26.5,26.5,0,0,0,7.2,2.3l.6.2A58.2,58.2,0,0,0,17,29.3Z" style="fill:#8aabff"/><path d="M17,15.6a28.4,28.4,0,0,0-.7,6.6h-.5a37.2,37.2,0,0,1-7.2-2.4,15.9,15.9,0,0,1,2.1-6A47.7,47.7,0,0,0,17,15.6Z" style="fill:#8aabff"/><path d="M17.8,11.5l.4-.3-.3.9h-.1a.2.2,0,0,1-.2-.2C17.6,11.6,17.7,11.5,17.8,11.5Z" style="fill:#8aabff"/><path d="M21.7,6.2a8.9,8.9,0,0,0-2.5,3.1h0a5.9,5.9,0,0,0-3.3,2.2.6.6,0,0,0,.2.9l1.4.8c-.1.6-.3,1.1-.4,1.7l-6-1.6A16.2,16.2,0,0,1,21.7,6.2Z" style="fill:#8aabff"/><path d="M27,15.6H26l-.5-.8,1.2.5Z" style="fill:#8aabff"/><path d="M27.4,10.7,24.8,9.5V6c1.9.2,3.6,1.8,4.8,4.4Z" style="fill:#8aabff"/><path d="M27.4,11.8l2.6-.6a5.2,5.2,0,0,1,.6,1.6l-.5.3Z" style="fill:#8aabff"/><path d="M31.8,18,30,17.5h0l-.7-1.4,1.3-.2.8-.2c.1.3.1.5.2.8A7.7,7.7,0,0,0,31.8,18Z" style="fill:#8aabff"/><path d="M32,21.4l-.2-.5-1.5-2.7,1.6.4c0,.8.1,1.5.1,2.3Z" style="fill:#8aabff"/><path d="M31.3,21.5l-.6-.3-.8-.3-.6-.3H29l-2.6-4.1h2.2l2.5,4.9Z" style="fill:#8aabff"/><path d="M32.1,22.2v.3l-1.8.3h-.6l-4.9.4V16.4h.1l1,.4,2.9,4.4.7.2h0l1.2.4Z" style="fill:#8aabff"/><path d="M31.1,30.2c-1.3,4.8-3.7,7.9-6.3,8.2V30.8C27,30.7,29,30.5,31.1,30.2Z" style="fill:#8aabff"/><path d="M32.1,23.2a29.9,29.9,0,0,1-.9,6.1,41.8,41.8,0,0,1-6.4.7V24A44.1,44.1,0,0,0,32.1,23.2Z" style="fill:#8aabff"/><path d="M31.8,30.1l.7-.2a33.8,33.8,0,0,0,7.2-2.3A16.4,16.4,0,0,1,27.3,38.1C29.3,36.7,30.9,33.8,31.8,30.1Z" style="fill:#8aabff"/><path d="M40.7,22.6V21.4l-.5-.3c-.1-.1-.2-.1-.2-.2h0l-1,.4,1.2.6c.1,0,.2.1.2.3s.1.2,0,.4-.2.2-.4.2h-.2l-2-.9h-.1l-.8.2.4.2a.5.5,0,0,1-.5.9h0l-1.3-.6-2,.4-.6.2a53.2,53.2,0,0,1-.8,6.1h.3a26.8,26.8,0,0,0,7.7-2.7,16.1,16.1,0,0,0,.6-3.3h0a.7.7,0,0,1-.1-.5Zm-1.3,1.2c0,.2-.2.3-.4.3s-.2,0-.2-.1l-.7-.3c-.3-.1-.4-.4-.2-.6s.2-.3.4-.3h.2l.7.3.3.3A.6.6,0,0,1,39.4,23.8Z" style="fill:#8aabff"/><path d="M35.2,15.4l-.7-.3,3.9-1.2a.8.8,0,0,1,.2.4l-.4.5-1.8.7A1.7,1.7,0,0,1,35.2,15.4Z" style="fill:#8aabff"/><path d="M39.2,15.5l-.3-.2h.2A.4.4,0,0,1,39.2,15.5Z" style="fill:#8aabff"/><path d="M39.2,17.2a.8.8,0,0,0-.2.8.8.8,0,0,1-.2.8.9.9,0,0,1-.7.4h-.2l-4.3-.8-1-.2c-.1-.4-.1-.7-.2-1l-.3-1.6,1.3-.3,2.5,1.1H37l1.2-.7,1.5.8v.3Z" style="fill:#8aabff"/><path d="M40.5,19.9l-2.4,1h0l-.5.2h0l-1.6.5-.7-.3c0-.1-.1-.1-.2-.1s-.4.1-.4.3a.6.6,0,0,0-.1.4h0l-1.3.4h-.5V20.6c-.1-.6-.1-1.2-.2-1.8l1.7.5h0l2.6.6c3.5.9,3-1.7,3-1.7h.3Z" style="fill:#8aabff"/><path d="M32.6,11.9l-1.3.6a8.8,8.8,0,0,0-.5-1.5h0Z" style="fill:#8aabff"/><path d="M31.9,14.6l.4.2H32Z" style="fill:#8aabff"/><path d="M37.9,13.3l-4.4,1.3-1.8-.9a.4.4,0,0,1-.1-.3L34.2,12l-3-1.8h-.8a9.7,9.7,0,0,0-3.1-4.1A15.4,15.4,0,0,1,37.9,13.3Z" style="fill:#8aabff"/><path d="M37.1,31.3l-4,1.8L24.7,37h-.1V25.6h.1L37,31.3Z" style="fill:#1e272e"/><polygon points="24.6 25.6 24.6 37 24.4 36.8 24.2 36.8 23.8 36.6 20.1 34.9 19.8 34.8 19.4 34.6 18.8 34.3 18.7 34.2 16.3 33.1 15.1 32.6 12.7 31.5 12.3 31.3 12.3 31.3 12.3 31.3 12.5 31.2 13.2 30.8 15.7 29.7 15.9 29.6 16.8 29.2 17 29.1 17.6 28.8 17.7 28.8 18.2 28.6 19.7 27.9 20.7 27.4 23.8 26 24.2 25.8 24.4 25.8 24.6 25.7 24.6 25.6" style="fill:#485460"/><path d="M33.1,33.1v6.5l-8.5,3.7V37h.1Z" style="fill:#485460"/><path d="M24.6,37v6.3l-8.3-3.7V33.1l3.8,1.8Z" style="fill:#808e9b"/><path d="M37.4,31.3v3.4c0,.2-.1.4-.3.4a.4.4,0,0,1-.4-.4V31.6H24.6v-.7H37.1C37.3,30.9,37.4,31.1,37.4,31.3Z" style="fill:#ffa801"/><path d="M24.6,30.9v.7a.3.3,0,0,1-.3-.3A.4.4,0,0,1,24.6,30.9Z" style="fill:#ffc048"/><path d="M38.6,35.6v2a.3.3,0,0,1-.3.3H35.9a.5.5,0,0,1-.3-.3v-2a.3.3,0,0,1,.1-.2l1.3-1h.2l1.3,1C38.6,35.4,38.6,35.5,38.6,35.6Z" style="fill:#ff3f34"/><path d="M38.3,35.6v1.9H35.9V35.6l1.2-.8Z" style="fill:#ff5e57"/><polygon points="41.4 15.5 40.5 16.2 39.2 15.5 39.2 15.5 38.9 15.3 39.1 15.2 40 14.8 41.4 15.5" style="fill:#8aabff"/><polygon points="32.6 11.9 31.3 12.5 30.6 12.8 30.1 13.1 27.4 11.8 30 11.2 30.8 11 30.8 11 32.6 11.9" style="fill:#8aabff"/><polygon points="31.3 21.5 30.7 21.2 29.9 20.9 29.3 20.6 29 20.5 26.4 16.4 26 15.7 25.5 14.9 26.7 15.4 27 15.6 27.8 15.9 28.4 16.2 28.6 16.2 31.1 21.1 31.3 21.5" style="fill:#8aabff"/><path d="M39.9,16.6v.2l-.6.4a.8.8,0,0,0-.2.8.8.8,0,0,1-.2.8.9.9,0,0,1-.7.4h-.2l-4.3-.8-1-.2-.8-.2L30,17.5h0l-.7-1.4-.2-.3H29l-.6-.2-1.6-.7-2-.9h-.2a.3.3,0,0,0-.3.3v.2h.1l.4.7.4.5h-.4a.5.5,0,0,0-.4-.2h-.2l-.4-.2-1.4-.6-.6-.3h0a24.4,24.4,0,0,1-3.3-1.7l-.6-.5h-.1a.2.2,0,0,1-.2-.2c0-.2.1-.3.2-.3l.4-.3,1-.4h.1L21.5,12h.2a.3.3,0,0,0,.3-.3h0l-.2-.2-1.5-.8h.9a6.1,6.1,0,0,1,3,.5h.2l.4.2L31,14.2l.9.4.4.2h.1l1,.5,2.5,1.1H37l1.2-.7,1.5.8Z" style="fill:#8aabff"/><path d="M38.1,20.9l-.5.2A.6.6,0,0,1,38.1,20.9Z" style="fill:#8aabff"/><polygon points="31.3 21.5 30.7 21.2 29.9 20.9 29.3 20.6 29 20.5 26.4 16.4 26 15.7 25.5 14.9 26.7 15.4 27 15.6 27.8 15.9 28.4 16.2 28.6 16.2 31.1 21.1 31.3 21.5" style="fill:#8aabff"/><polygon points="30.1 13.1 27.4 11.8 30 11.2 30.8 11 30.8 11 32.6 11.9 31.3 12.5 30.6 12.8 30.1 13.1" style="fill:#8aabff"/><polygon points="41.4 15.5 40.5 16.2 39.2 15.5 39.2 15.5 38.9 15.3 39.1 15.2 40 14.8 41.4 15.5" style="fill:#8aabff"/></svg>