<svg xmlns="http://www.w3.org/2000/svg" viewBox="0 0 50 50"><polygon points="18.5 33.8 17.9 37.8 19 36.8 20.7 38 20.1 34.6 18.5 33.8" style="fill:#e14a4a"/><polygon points="16.8 33 13.2 33.7 14.7 34 14.1 34.9 18.5 33.8 16.8 33" style="fill:#e14a4a"/><path d="M34,25.7a14.2,14.2,0,0,1-18.2,0V13.3H34Z" style="fill:#20465e"/><polygon points="8.9 13.4 25.7 20.2 40.8 13 25 7 8.9 13.4" style="fill:#385b70"/><path d="M40.9,19.8c-.1,0-.2-.1-.2-.3V13.3c0-.4-.5-.5-.6-.6l-14.8.6h0A.5.5,0,0,1,25,13a.5.5,0,0,1,.3-.3l14.9-.6h0a1.3,1.3,0,0,1,1,1.2v6.2A.3.3,0,0,1,40.9,19.8Z" style="fill:#20465e"/><path d="M42,24.3l-.6-5.6-.2-.2h-.4l-.2.2L40,24.3a1.1,1.1,0,0,0,1,1.4C41.6,25.7,42,25.1,42,24.3Z" style="fill:#fec656"/><circle cx="40.9" cy="17.3" r="0.6" style="fill:#fec656"/><path d="M35.5,38.5a6.7,6.7,0,0,1-5,2.5S18,31.3,9,31.3A3.3,3.3,0,0,1,11.2,29L26,33Z" style="fill:#8acee2"/><path d="M36.6,36.8c-1.1,2.5-3.5,3.7-5.3,2.5s-2.2-4-1.1-6.5,3.6-3.7,5.3-2.6S37.8,34.3,36.6,36.8Z" style="fill:#bce2ed"/><path d="M33.2,33c1.5-.1,2,2.5-.1,3.4l-5.2-1.8A46.3,46.3,0,0,1,33.2,33Z" style="fill:#20a1b7"/><path d="M34.2,39.4s-3.9.5-3.2-3.5A3.9,3.9,0,0,1,33.2,33l-6.3-1,2,5.7,2.4,1.6A2.7,2.7,0,0,0,34.2,39.4Z" style="fill:#75c8db"/><path d="M30.2,32.8a4.6,4.6,0,0,1,3.7-3c-12-.2-23.2-6.2-23.2-6.2s-1.8-.4-2.4,2.2.7,3.9.7,3.9c9.2.4,19.3,7.4,22,9.4C29.4,37.8,29.2,35.1,30.2,32.8Z" style="fill:#ace3ef"/><path d="M23.5,28.4s-5.6,2.7-2.7,6.5l-3.1-1.4a4.7,4.7,0,0,1,3-5.8Z" style="fill:#f16d6e"/><circle cx="25" cy="25" r="24" style="fill:none;stroke:#1043e9;stroke-miterlimit:10"/></svg>