<svg width="73" height="72" viewBox="0 0 73 72" fill="none" xmlns="http://www.w3.org/2000/svg">
<g clip-path="url(#clip0_250_316)">
<path fill-rule="evenodd" clip-rule="evenodd" d="M53.5214 71.9578H19.1453C17.3403 71.9579 15.6087 71.2438 14.3284 69.9714C13.0482 68.6991 12.3234 66.9719 12.3122 65.167V17.0404C12.3122 13.2443 15.3491 10.2074 19.1453 10.2074H25.4722C25.9196 10.2074 26.3488 10.3852 26.6652 10.7016C26.9816 11.018 27.1593 11.4471 27.1593 11.8946V17.167H45.4651V11.8946C45.4651 11.673 45.5088 11.4536 45.5935 11.2489C45.6783 11.0442 45.8026 10.8582 45.9593 10.7016C46.116 10.5449 46.3019 10.4206 46.5066 10.3358C46.7113 10.251 46.9307 10.2074 47.1523 10.2074H53.5214C57.3175 10.2074 60.3544 13.2865 60.3544 17.0404V65.1248C60.3544 68.9209 57.2753 71.9578 53.5214 71.9578Z" fill="url(#paint0_linear_250_316)"/>
<path fill-rule="evenodd" clip-rule="evenodd" d="M46.8149 14.2145V19.276H25.8096V14.2145H20.2419C19.0891 14.2252 17.9859 14.6851 17.1668 15.4964C16.3477 16.3076 15.8772 17.4063 15.8553 18.5589V63.522C15.8553 65.9684 17.8377 67.9509 20.2419 67.9509H52.3825C53.5571 67.9509 54.6836 67.4842 55.5142 66.6537C56.3447 65.8231 56.8113 64.6966 56.8113 63.522V18.6011C56.8002 17.4338 56.3287 16.3182 55.4994 15.4967C54.67 14.6752 53.5499 14.2144 52.3825 14.2145H46.8149Z" fill="url(#paint1_linear_250_316)"/>
<path fill-rule="evenodd" clip-rule="evenodd" d="M45.676 20.5414H26.9906C26.1516 20.5414 25.347 20.2081 24.7537 19.6148C24.1604 19.0215 23.8271 18.2169 23.8271 17.3779V9.65911C23.8271 7.92976 25.2191 6.49567 26.9906 6.49567H27.7498C28.2797 4.62182 29.4068 2.97218 30.9599 1.7974C32.513 0.622624 34.4071 -0.0130615 36.3544 -0.0130615C38.3017 -0.0130615 40.1958 0.622624 41.7489 1.7974C43.3019 2.97218 44.4291 4.62182 44.959 6.49567H45.7182C47.4475 6.49567 48.8816 7.92976 48.8816 9.65911V17.3779C48.8816 18.2169 48.5483 19.0215 47.9551 19.6148C47.3618 20.2081 46.515 20.5414 45.676 20.5414Z" fill="url(#paint2_linear_250_316)"/>
<path fill-rule="evenodd" clip-rule="evenodd" d="M51.4546 39.3111H21.1699C20.7224 39.3111 20.2933 39.1333 19.9769 38.8169C19.6605 38.5005 19.4827 38.0714 19.4827 37.6239V26.0668C19.4827 25.6193 19.6605 25.1902 19.9769 24.8738C20.2933 24.5574 20.7224 24.3796 21.1699 24.3796H51.4546C51.902 24.3796 52.3312 24.5574 52.6476 24.8738C52.964 25.1902 53.1417 25.6193 53.1417 26.0668V37.6239C53.1417 38.0714 52.964 38.5005 52.6476 38.8169C52.3312 39.1333 51.902 39.3111 51.4546 39.3111Z" fill="url(#paint3_linear_250_316)"/>
<path fill-rule="evenodd" clip-rule="evenodd" d="M51.4546 64.7452H21.1699C20.7224 64.7452 20.2933 64.5674 19.9769 64.251C19.6605 63.9346 19.4827 63.5055 19.4827 63.058C19.4827 62.6106 19.6605 62.1814 19.9769 61.865C20.2933 61.5486 20.7224 61.3708 21.1699 61.3708H51.4546C51.902 61.3708 52.3312 61.5486 52.6476 61.865C52.964 62.1814 53.1417 62.6106 53.1417 63.058C53.1417 63.5055 52.964 63.9346 52.6476 64.251C52.3312 64.5674 51.902 64.7452 51.4546 64.7452Z" fill="url(#paint4_linear_250_316)"/>
<path fill-rule="evenodd" clip-rule="evenodd" d="M37.5354 9.53254H35.1312C34.6837 9.53254 34.2546 9.35479 33.9382 9.03838C33.6218 8.72198 33.444 8.29284 33.444 7.84537C33.444 7.39791 33.6218 6.96877 33.9382 6.65236C34.2546 6.33596 34.6837 6.1582 35.1312 6.1582H37.5354C37.9829 6.1582 38.412 6.33596 38.7284 6.65236C39.0448 6.96877 39.2226 7.39791 39.2226 7.84537C39.2226 8.29284 39.0448 8.72198 38.7284 9.03838C38.412 9.35479 37.9829 9.53254 37.5354 9.53254Z" fill="url(#paint5_linear_250_316)"/>
</g>
<defs>
<linearGradient id="paint0_linear_250_316" x1="12.3122" y1="41.0826" x2="60.3544" y2="41.0826" gradientUnits="userSpaceOnUse">
<stop stop-color="#EBAE3C"/>
<stop offset="1" stop-color="#FFD664"/>
</linearGradient>
<linearGradient id="paint1_linear_250_316" x1="15.8553" y1="41.0827" x2="56.8113" y2="41.0827" gradientUnits="userSpaceOnUse">
<stop stop-color="#D6D6D6"/>
<stop offset="1" stop-color="#FEFEFE"/>
</linearGradient>
<linearGradient id="paint2_linear_250_316" x1="23.8271" y1="10.2918" x2="48.8395" y2="10.2918" gradientUnits="userSpaceOnUse">
<stop stop-color="#AEBCC6"/>
<stop offset="1" stop-color="#D6E4EE"/>
</linearGradient>
<linearGradient id="paint3_linear_250_316" x1="19.4827" y1="31.8454" x2="53.1417" y2="31.8454" gradientUnits="userSpaceOnUse">
<stop stop-color="#AEBCC6"/>
<stop offset="1" stop-color="#D6E4EE"/>
</linearGradient>
<linearGradient id="paint4_linear_250_316" x1="19.4827" y1="63.058" x2="53.1417" y2="63.058" gradientUnits="userSpaceOnUse">
<stop stop-color="#AEBCC6"/>
<stop offset="1" stop-color="#D6E4EE"/>
</linearGradient>
<linearGradient id="paint5_linear_250_316" x1="33.444" y1="7.84537" x2="39.2226" y2="7.84537" gradientUnits="userSpaceOnUse">
<stop stop-color="#EAEAEA"/>
<stop offset="1" stop-color="white"/>
</linearGradient>
<clipPath id="clip0_250_316">
<rect width="72" height="72" fill="white" transform="translate(0.333313)"/>
</clipPath>
</defs>
</svg>
