<svg width="72" height="72" viewBox="0 0 72 72" fill="none" xmlns="http://www.w3.org/2000/svg">
<g clip-path="url(#clip0_250_327)">
<path fill-rule="evenodd" clip-rule="evenodd" d="M38.9315 48.9281H29.652C29.2045 48.9281 28.7754 48.7503 28.459 48.4339C28.1426 48.1175 27.9648 47.6884 27.9648 47.2409V30.2848C27.9648 29.8374 28.1426 29.4082 28.459 29.0918C28.7754 28.7754 29.2045 28.5977 29.652 28.5977H38.9315C39.3789 28.5977 39.8081 28.7754 40.1245 29.0918C40.4409 29.4082 40.6186 29.8374 40.6186 30.2848V47.3252C40.6186 47.7727 40.4409 48.2019 40.1245 48.5183C39.8081 48.8347 39.3789 49.0124 38.9315 49.0124V48.9281Z" fill="url(#paint0_linear_250_327)"/>
<path fill-rule="evenodd" clip-rule="evenodd" d="M57.4482 48.9281H48.0844C47.6369 48.9281 47.2078 48.7503 46.8914 48.4339C46.575 48.1175 46.3972 47.6884 46.3972 47.2409V26.1513C46.3972 25.7038 46.575 25.2747 46.8914 24.9583C47.2078 24.6419 47.6369 24.4641 48.0844 24.4641H57.4482C57.8956 24.4641 58.3248 24.6419 58.6412 24.9583C58.9576 25.2747 59.1354 25.7038 59.1354 26.1513V47.2409C59.1354 47.6884 58.9576 48.1175 58.6412 48.4339C58.3248 48.7503 57.8956 48.9281 57.4482 48.9281Z" fill="url(#paint1_linear_250_327)"/>
<path fill-rule="evenodd" clip-rule="evenodd" d="M20.457 48.928H11.1354C10.6879 48.928 10.2587 48.7502 9.94234 48.4338C9.62594 48.1174 9.44818 47.6883 9.44818 47.2408V37.4552C9.44818 37.0078 9.62594 36.5786 9.94234 36.2622C10.2587 35.9458 10.6879 35.7681 11.1354 35.7681H20.457C20.9044 35.7681 21.3336 35.9458 21.65 36.2622C21.9664 36.5786 22.1441 37.0078 22.1441 37.4552V47.3252C22.1441 47.7726 21.9664 48.2018 21.65 48.5182C21.3336 48.8346 20.9044 49.0124 20.457 49.0124V48.928Z" fill="url(#paint2_linear_250_327)"/>
<path fill-rule="evenodd" clip-rule="evenodd" d="M44.71 68.3727H26.9104C26.6658 68.3755 26.4236 68.325 26.2004 68.2249C25.9773 68.1248 25.7786 67.9773 25.6181 67.7927C25.4576 67.6082 25.3392 67.3909 25.271 67.156C25.2028 66.9212 25.1865 66.6743 25.2232 66.4325L27.0791 54.4114C27.1401 54.0091 27.3445 53.6424 27.6545 53.3788C27.9645 53.1153 28.3594 52.9727 28.7663 52.9773H42.8541C43.261 52.9727 43.6559 53.1153 43.9659 53.3788C44.2759 53.6424 44.4803 54.0091 44.5413 54.4114L46.355 66.2216C46.4274 66.4745 46.4396 66.7409 46.3907 66.9995C46.3417 67.258 46.233 67.5015 46.0732 67.7106C45.9133 67.9196 45.7068 68.0883 45.4701 68.2033C45.2334 68.3183 44.9731 68.3763 44.71 68.3727Z" fill="url(#paint3_linear_250_327)"/>
<path fill-rule="evenodd" clip-rule="evenodd" d="M63.3954 56.3516H8.60457C6.3225 56.3516 4.13389 55.445 2.52022 53.8314C0.90655 52.2177 0 50.0291 0 47.747L0 12.2321C0 7.46582 3.88049 3.58533 8.60457 3.58533H63.3954C68.1195 3.58533 72 7.46582 72 12.1899V47.747C72.0012 47.8314 72.0012 47.9157 72 48.0001V48.3375C71.8502 50.5157 70.8779 52.5555 69.2802 54.0436C67.6824 55.5317 65.5788 56.3567 63.3954 56.3516ZM3.37434 45.5959H68.6257V12.1899C68.6257 10.8028 68.0746 9.47242 67.0938 8.49157C66.1129 7.51071 64.7826 6.95967 63.3954 6.95967H8.60457C7.91416 6.95965 7.23058 7.09631 6.59326 7.36179C5.95593 7.62727 5.37747 8.0163 4.89125 8.50645C4.40502 8.9966 4.02065 9.57816 3.7603 10.2176C3.49995 10.857 3.36877 11.5417 3.37434 12.2321V45.6381V45.5959Z" fill="url(#paint4_linear_250_327)"/>
<path fill-rule="evenodd" clip-rule="evenodd" d="M53.2302 68.3726H18.3902C17.9427 68.3726 17.5136 68.1949 17.1972 67.8785C16.8808 67.5621 16.703 67.1329 16.703 66.6855C16.703 66.238 16.8808 65.8089 17.1972 65.4925C17.5136 65.176 17.9427 64.9983 18.3902 64.9983H53.2302C53.6777 64.9983 54.1068 65.176 54.4233 65.4925C54.7397 65.8089 54.9174 66.238 54.9174 66.6855C54.9174 67.1329 54.7397 67.5621 54.4233 67.8785C54.1068 68.1949 53.6777 68.3726 53.2302 68.3726Z" fill="url(#paint5_linear_250_327)"/>
<path fill-rule="evenodd" clip-rule="evenodd" d="M60.8647 27.8384H44.6678C44.3647 27.8353 44.068 27.7506 43.809 27.5933C43.5499 27.4359 43.338 27.2116 43.1956 26.944C43.0531 26.6764 42.9854 26.3754 42.9996 26.0726C43.0137 25.7698 43.1092 25.4764 43.2759 25.2233L51.3743 13.2866C51.5293 13.0604 51.737 12.8753 51.9795 12.7475C52.222 12.6197 52.4921 12.5529 52.7662 12.5529C53.0404 12.5529 53.3104 12.6197 53.553 12.7475C53.7955 12.8753 54.0032 13.0604 54.1582 13.2866L62.1722 25.0967C62.3704 25.3442 62.4948 25.6426 62.5312 25.9575C62.5676 26.2725 62.5145 26.5914 62.378 26.8775C62.2415 27.1637 62.0272 27.4056 61.7595 27.5756C61.4918 27.7455 61.1817 27.8366 60.8647 27.8384Z" fill="url(#paint6_linear_250_327)"/>
<path fill-rule="evenodd" clip-rule="evenodd" d="M28.0492 23.7891H9.78556C9.33809 23.7891 8.90896 23.6114 8.59255 23.295C8.27614 22.9786 8.09839 22.5494 8.09839 22.102C8.09839 21.6545 8.27614 21.2254 8.59255 20.909C8.90896 20.5926 9.33809 20.4148 9.78556 20.4148H28.0492C28.4966 20.4148 28.9258 20.5926 29.2422 20.909C29.5586 21.2254 29.7364 21.6545 29.7364 22.102C29.7364 22.5494 29.5586 22.9786 29.2422 23.295C28.9258 23.6114 28.4966 23.7891 28.0492 23.7891Z" fill="url(#paint7_linear_250_327)"/>
</g>
<defs>
<linearGradient id="paint0_linear_250_327" x1="27.9227" y1="38.7629" x2="40.6186" y2="38.7629" gradientUnits="userSpaceOnUse">
<stop stop-color="#EBBE36"/>
<stop offset="1" stop-color="#FFE65E"/>
</linearGradient>
<linearGradient id="paint1_linear_250_327" x1="46.3972" y1="36.6961" x2="59.1354" y2="36.6961" gradientUnits="userSpaceOnUse">
<stop stop-color="#DB3F3C"/>
<stop offset="1" stop-color="#FF6764"/>
</linearGradient>
<linearGradient id="paint2_linear_250_327" x1="9.44818" y1="42.348" x2="22.1441" y2="42.348" gradientUnits="userSpaceOnUse">
<stop stop-color="#A7D495"/>
<stop offset="1" stop-color="#CFFCBD"/>
</linearGradient>
<linearGradient id="paint3_linear_250_327" x1="25.1388" y1="60.6961" x2="46.3972" y2="60.6961" gradientUnits="userSpaceOnUse">
<stop stop-color="#8995AD"/>
<stop offset="1" stop-color="#B1BDD5"/>
</linearGradient>
<linearGradient id="paint4_linear_250_327" x1="0" y1="29.9895" x2="72" y2="29.9895" gradientUnits="userSpaceOnUse">
<stop stop-color="#BFC7D6"/>
<stop offset="1" stop-color="#E7EFFE"/>
</linearGradient>
<linearGradient id="paint5_linear_250_327" x1="16.703" y1="66.6855" x2="54.9174" y2="66.6855" gradientUnits="userSpaceOnUse">
<stop stop-color="#BFC7D6"/>
<stop offset="1" stop-color="#E7EFFE"/>
</linearGradient>
<linearGradient id="paint6_linear_250_327" x1="42.8963" y1="20.204" x2="62.5518" y2="20.204" gradientUnits="userSpaceOnUse">
<stop stop-color="#DD504D"/>
<stop offset="1" stop-color="#FF7875"/>
</linearGradient>
<linearGradient id="paint7_linear_250_327" x1="8.09839" y1="22.102" x2="29.7364" y2="22.102" gradientUnits="userSpaceOnUse">
<stop stop-color="#8995AD"/>
<stop offset="1" stop-color="#B1BDD5"/>
</linearGradient>
<clipPath id="clip0_250_327">
<rect width="72" height="72" fill="white"/>
</clipPath>
</defs>
</svg>
