<svg width="73" height="72" viewBox="0 0 73 72" fill="none" xmlns="http://www.w3.org/2000/svg">
<g clip-path="url(#clip0_250_339)">
<path fill-rule="evenodd" clip-rule="evenodd" d="M65.8337 71.9578H7.49979C7.05233 71.9578 6.62319 71.7801 6.30678 71.4637C5.99038 71.1473 5.81262 70.7181 5.81262 70.2707V15.1846C5.81262 14.7628 5.98134 14.341 6.27659 14.0035L19.774 0.506174C20.0881 0.22909 20.494 0.078744 20.9128 0.0843815H65.7915C66.239 0.0843815 66.6681 0.262136 66.9845 0.578542C67.3009 0.894948 67.4787 1.32409 67.4787 1.77155V70.355C67.4787 70.8025 67.3009 71.2316 66.9845 71.548C66.6681 71.8644 66.239 72.0422 65.7915 72.0422L65.8337 71.9578Z" fill="url(#paint0_linear_250_339)"/>
<path fill-rule="evenodd" clip-rule="evenodd" d="M5.81263 16.8718V15.1846C5.81263 14.6784 5.98135 14.2566 6.2766 13.9192L19.774 0.421844C20.1001 0.175042 20.5048 0.0551271 20.9128 0.0844099H22.6V15.1846C22.6 15.6321 22.4222 16.0612 22.1058 16.3776C21.7894 16.694 21.3603 16.8718 20.9128 16.8718H5.72827H5.81263Z" fill="url(#paint1_linear_250_339)"/>
<path fill-rule="evenodd" clip-rule="evenodd" d="M58.368 62.6784H15.5138C15.0664 62.6784 14.6372 62.5007 14.3208 62.1843C14.0044 61.8679 13.8267 61.4387 13.8267 60.9912C13.8267 60.5438 14.0044 60.1146 14.3208 59.7982C14.6372 59.4818 15.0664 59.3041 15.5138 59.3041H58.368C58.8154 59.3041 59.2446 59.4818 59.561 59.7982C59.8774 60.1146 60.0551 60.5438 60.0551 60.9912C60.0551 61.4387 59.8774 61.8679 59.561 62.1843C59.2446 62.5007 58.8154 62.6784 58.368 62.6784Z" fill="url(#paint2_linear_250_339)"/>
<path fill-rule="evenodd" clip-rule="evenodd" d="M58.368 53.0616H15.5138C15.0664 53.0616 14.6372 52.8838 14.3208 52.5674C14.0044 52.251 13.8267 51.8219 13.8267 51.3744C13.8267 50.927 14.0044 50.4978 14.3208 50.1814C14.6372 49.865 15.0664 49.6873 15.5138 49.6873H58.368C58.8154 49.6873 59.2446 49.865 59.561 50.1814C59.8774 50.4978 60.0551 50.927 60.0551 51.3744C60.0551 51.8219 59.8774 52.251 59.561 52.5674C59.2446 52.8838 58.8154 53.0616 58.368 53.0616Z" fill="url(#paint3_linear_250_339)"/>
<path fill-rule="evenodd" clip-rule="evenodd" d="M58.368 43.4447H15.5138C15.0664 43.4447 14.6372 43.2669 14.3208 42.9505C14.0044 42.6341 13.8267 42.2049 13.8267 41.7575C13.8267 41.31 14.0044 40.8809 14.3208 40.5645C14.6372 40.2481 15.0664 40.0703 15.5138 40.0703H58.368C58.8154 40.0703 59.2446 40.2481 59.561 40.5645C59.8774 40.8809 60.0551 41.31 60.0551 41.7575C60.0551 42.2049 59.8774 42.6341 59.561 42.9505C59.2446 43.2669 58.8154 43.4447 58.368 43.4447Z" fill="url(#paint4_linear_250_339)"/>
<path fill-rule="evenodd" clip-rule="evenodd" d="M58.368 33.8278H15.5138C15.0664 33.8278 14.6372 33.6501 14.3208 33.3337C14.0044 33.0173 13.8267 32.5881 13.8267 32.1407C13.8267 31.6932 14.0044 31.2641 14.3208 30.9477C14.6372 30.6312 15.0664 30.4535 15.5138 30.4535H58.368C58.8154 30.4535 59.2446 30.6312 59.561 30.9477C59.8774 31.2641 60.0551 31.6932 60.0551 32.1407C60.0551 32.5881 59.8774 33.0173 59.561 33.3337C59.2446 33.6501 58.8154 33.8278 58.368 33.8278Z" fill="url(#paint5_linear_250_339)"/>
<path fill-rule="evenodd" clip-rule="evenodd" d="M58.368 25.6028H31.0358C30.5883 25.6028 30.1592 25.4251 29.8428 25.1087C29.5264 24.7922 29.3486 24.3631 29.3486 23.9156V9.44816C29.3486 9.22659 29.3923 9.0072 29.4771 8.8025C29.5618 8.59781 29.6861 8.41182 29.8428 8.25515C29.9995 8.09848 30.1855 7.9742 30.3902 7.88941C30.5948 7.80463 30.8142 7.76099 31.0358 7.76099H58.368C58.5895 7.76099 58.8089 7.80463 59.0136 7.88941C59.2183 7.9742 59.4043 8.09848 59.561 8.25515C59.7176 8.41182 59.8419 8.59781 59.9267 8.8025C60.0115 9.0072 60.0551 9.22659 60.0551 9.44816V23.9156C60.0551 24.3631 59.8774 24.7922 59.561 25.1087C59.2446 25.4251 58.8154 25.6028 58.368 25.6028Z" fill="url(#paint6_linear_250_339)"/>
</g>
<defs>
<linearGradient id="paint0_linear_250_339" x1="5.81262" y1="35.9789" x2="67.5209" y2="35.9789" gradientUnits="userSpaceOnUse">
<stop stop-color="#DBD9DB"/>
<stop offset="1" stop-color="white"/>
</linearGradient>
<linearGradient id="paint1_linear_250_339" x1="5.81263" y1="8.4359" x2="22.6422" y2="8.4359" gradientUnits="userSpaceOnUse">
<stop stop-color="#C3BCC2"/>
<stop offset="1" stop-color="#EBE4EA"/>
</linearGradient>
<linearGradient id="paint2_linear_250_339" x1="13.8267" y1="60.9912" x2="60.0551" y2="60.9912" gradientUnits="userSpaceOnUse">
<stop stop-color="#C3BCC2"/>
<stop offset="1" stop-color="#EBE4EA"/>
</linearGradient>
<linearGradient id="paint3_linear_250_339" x1="13.8267" y1="51.3744" x2="60.0551" y2="51.3744" gradientUnits="userSpaceOnUse">
<stop stop-color="#C3BCC2"/>
<stop offset="1" stop-color="#EBE4EA"/>
</linearGradient>
<linearGradient id="paint4_linear_250_339" x1="13.8267" y1="41.7575" x2="60.0551" y2="41.7575" gradientUnits="userSpaceOnUse">
<stop stop-color="#C3BCC2"/>
<stop offset="1" stop-color="#EBE4EA"/>
</linearGradient>
<linearGradient id="paint5_linear_250_339" x1="13.8267" y1="32.1407" x2="60.0551" y2="32.1407" gradientUnits="userSpaceOnUse">
<stop stop-color="#C3BCC2"/>
<stop offset="1" stop-color="#EBE4EA"/>
</linearGradient>
<linearGradient id="paint6_linear_250_339" x1="29.3486" y1="16.703" x2="60.0551" y2="16.703" gradientUnits="userSpaceOnUse">
<stop stop-color="#C3BCC2"/>
<stop offset="1" stop-color="#EBE4EA"/>
</linearGradient>
<clipPath id="clip0_250_339">
<rect width="72" height="72" fill="white" transform="translate(0.666748)"/>
</clipPath>
</defs>
</svg>
