<svg width="73" height="72" viewBox="0 0 73 72" fill="none" xmlns="http://www.w3.org/2000/svg">
<g clip-path="url(#clip0_250_255)">
<path fill-rule="evenodd" clip-rule="evenodd" d="M10.2403 22.8611H2.43717C1.50923 22.8611 0.75 22.1019 0.75 21.174V13.0334C0.75 12.1054 1.50923 11.3462 2.43717 11.3462H10.2403C11.1683 11.3462 11.9275 12.1054 11.9275 13.0334V21.174C11.9275 22.1019 11.1683 22.8611 10.2403 22.8611Z" fill="url(#paint0_linear_250_255)"/>
<path fill-rule="evenodd" clip-rule="evenodd" d="M71.0628 22.8611H63.2175C62.2895 22.8611 61.5303 22.1019 61.5303 21.174V13.0334C61.5303 12.1054 62.2895 11.3462 63.2175 11.3462H71.0628C71.9908 11.3462 72.75 12.1054 72.75 13.0334V21.174C72.75 22.1019 71.9908 22.8611 71.0628 22.8611Z" fill="url(#paint1_linear_250_255)"/>
<path fill-rule="evenodd" clip-rule="evenodd" d="M56.7641 66.5589H16.7359C15.808 66.5589 15.0488 65.7996 15.0488 64.8717V20.5835C15.0488 19.6555 15.808 18.8963 16.7359 18.8963H56.7641C57.692 18.8963 58.4512 19.6555 58.4512 20.5835V64.8717C58.4512 65.7996 57.692 66.5589 56.7641 66.5589Z" fill="url(#paint2_linear_250_255)"/>
<path fill-rule="evenodd" clip-rule="evenodd" d="M22.1349 32.6467C21.7553 32.6467 21.3757 32.5202 21.0382 32.2671C20.3634 31.6766 20.279 30.5799 20.8695 29.9051L22.8941 27.5008C23.1894 27.1212 23.6533 26.9103 24.1595 26.9103C24.6656 26.9103 25.1296 27.1212 25.467 27.5008L27.3651 29.7363C27.9556 30.4534 27.8713 31.5079 27.1542 32.0984C26.4372 32.7311 25.3827 32.6467 24.7922 31.9297L24.1595 31.2126L23.4424 32.0562C23.105 32.478 22.641 32.6467 22.1349 32.6467Z" fill="url(#paint3_linear_250_255)"/>
<path fill-rule="evenodd" clip-rule="evenodd" d="M30.9082 32.6045C30.5286 32.6045 30.1911 32.5202 29.8959 32.3093C29.4741 31.9718 29.221 31.4657 29.221 30.9173V28.1757C29.221 27.2478 29.9802 26.4885 30.9082 26.4885C31.8361 26.4885 32.5953 27.2478 32.5953 28.1757V28.6818C33.3546 28.5975 34.1138 29.0615 34.3669 29.8629C34.62 30.7486 34.156 31.6766 33.2702 31.9718L31.4143 32.5623C31.2456 32.6045 31.0769 32.6045 30.9082 32.6045Z" fill="url(#paint4_linear_250_255)"/>
<path fill-rule="evenodd" clip-rule="evenodd" d="M39.344 32.5624C38.4161 32.5624 37.6569 31.8031 37.6569 30.8752V30.2003H37.3194C36.3493 30.2425 35.5901 29.5676 35.5479 28.6397C35.4635 27.6696 36.2228 26.9104 37.1507 26.8682L39.2597 26.7416C39.6815 26.7416 40.1454 26.8682 40.4829 27.2056C40.8203 27.543 41.0312 27.9648 41.0312 28.4288V30.8752C41.0312 31.8031 40.272 32.5624 39.344 32.5624Z" fill="url(#paint5_linear_250_255)"/>
<path fill-rule="evenodd" clip-rule="evenodd" d="M44.6164 32.3515C44.2368 32.3515 43.8572 32.2249 43.5198 31.9297C42.8027 31.3392 42.7184 30.2847 43.3511 29.5676L45.0382 27.543C45.3757 27.1634 45.8396 26.9525 46.3458 26.9525C46.8098 26.9525 47.3159 27.1634 47.6112 27.543L47.9908 28.007L48.4126 27.543C48.7078 27.1634 49.1718 26.9525 49.6779 26.9525C50.1841 26.9525 50.6481 27.1634 50.9855 27.543L52.6305 29.4833C53.221 30.2003 53.1366 31.2548 52.4196 31.8453C51.7025 32.4358 50.6481 32.3515 50.0576 31.6766L49.6779 31.2126L49.2983 31.7188C48.9609 32.0562 48.4969 32.3093 47.9908 32.3093C47.4846 32.3093 47.0206 32.0562 46.7254 31.7188L46.3458 31.2548L45.8818 31.761C45.5866 32.1406 45.0804 32.3515 44.6164 32.3515Z" fill="url(#paint6_linear_250_255)"/>
<path fill-rule="evenodd" clip-rule="evenodd" d="M22.1349 51.543C21.7553 51.543 21.3757 51.4165 21.0382 51.1212C20.3634 50.5307 20.279 49.4762 20.8695 48.7592L22.8941 46.3972C23.1894 46.0175 23.6533 45.8066 24.1595 45.8066C24.6656 45.8066 25.1296 46.0175 25.467 46.3972L27.3651 48.6327C27.9556 49.3075 27.8713 50.4042 27.1542 50.9947C26.4372 51.5852 25.3827 51.5008 24.7922 50.7838L24.1595 50.0667L23.4424 50.9525C23.105 51.3321 22.641 51.543 22.1349 51.543Z" fill="url(#paint7_linear_250_255)"/>
<path fill-rule="evenodd" clip-rule="evenodd" d="M30.9082 51.5009C30.5286 51.5009 30.1911 51.3743 29.8959 51.1634C29.4741 50.8682 29.221 50.362 29.221 49.8137V47.0721C29.221 46.1019 29.9802 45.3849 30.9082 45.3849C31.8361 45.3849 32.5953 46.1019 32.5953 47.0721V47.536C33.3546 47.4939 34.1138 47.9578 34.3669 48.717C34.62 49.6028 34.156 50.5729 33.2702 50.826L31.4143 51.4165C31.2456 51.4587 31.0769 51.5009 30.9082 51.5009Z" fill="url(#paint8_linear_250_255)"/>
<path fill-rule="evenodd" clip-rule="evenodd" d="M39.344 51.4165C38.4161 51.4165 37.6569 50.6995 37.6569 49.7294V49.0967H37.3194C36.3493 49.1388 35.5901 48.4218 35.5479 47.4938C35.4635 46.5659 36.2228 45.7645 37.1507 45.7223L39.2597 45.638C39.7236 45.5958 40.1454 45.7645 40.4829 46.1019C40.8203 46.3972 41.0312 46.8612 41.0312 47.3251V49.7294C41.0312 50.6995 40.272 51.4165 39.344 51.4165Z" fill="url(#paint9_linear_250_255)"/>
<path fill-rule="evenodd" clip-rule="evenodd" d="M44.6164 51.2056C44.2368 51.2056 43.8572 51.079 43.5198 50.826C42.8027 50.2355 42.7184 49.1388 43.3511 48.4639L45.0382 46.4393C45.3757 46.0597 45.8396 45.8488 46.3458 45.8488C46.8098 45.8488 47.3159 46.0597 47.6112 46.4393L47.9908 46.8611L48.4126 46.3972C48.7078 46.0175 49.1718 45.8066 49.6779 45.8066C50.1841 45.8066 50.6481 46.0175 50.9855 46.3972L52.6305 48.3374C53.221 49.0544 53.1366 50.1089 52.4196 50.7416C51.7025 51.3321 50.6481 51.2478 50.0576 50.5307L49.6779 50.1089L49.2983 50.5729C48.9609 50.9525 48.4969 51.1634 47.9908 51.1634C47.4846 51.1634 47.0206 50.9525 46.7254 50.5729L46.3458 50.1089L45.8818 50.6151C45.5866 51.0369 45.0804 51.2056 44.6164 51.2056Z" fill="url(#paint10_linear_250_255)"/>
<path fill-rule="evenodd" clip-rule="evenodd" d="M50.2685 40.703H23.6533C22.7254 40.703 21.9662 39.9437 21.9662 39.0158C21.9662 38.0878 22.7254 37.3286 23.6533 37.3286H50.2685C51.1964 37.3286 51.9556 38.0878 51.9556 39.0158C51.9556 39.9437 51.1964 40.703 50.2685 40.703Z" fill="url(#paint11_linear_250_255)"/>
<path fill-rule="evenodd" clip-rule="evenodd" d="M50.2685 58.9666H23.6533C22.7254 58.9666 21.9662 58.2073 21.9662 57.2794C21.9662 56.3515 22.7254 55.5922 23.6533 55.5922H50.2685C51.1964 55.5922 51.9556 56.3515 51.9556 57.2794C51.9556 58.2073 51.1964 58.9666 50.2685 58.9666Z" fill="url(#paint12_linear_250_255)"/>
<path fill-rule="evenodd" clip-rule="evenodd" d="M56.7641 22.2706H16.7359C15.808 22.2706 15.0488 21.5114 15.0488 20.5835V13.6239C15.0488 12.6959 15.808 11.9367 16.7359 11.9367H56.7641C57.692 11.9367 58.4512 12.6959 58.4512 13.6239V20.5835C58.4512 21.5114 57.692 22.2706 56.7641 22.2706Z" fill="url(#paint13_linear_250_255)"/>
<path fill-rule="evenodd" clip-rule="evenodd" d="M16.7359 28.7662H10.2403C9.31239 28.7662 8.55316 28.007 8.55316 27.0791V7.12827C8.55316 6.15815 9.31239 5.4411 10.2403 5.4411H16.7359C17.6639 5.4411 18.4231 6.15815 18.4231 7.12827V27.0791C18.4231 28.007 17.6639 28.7662 16.7359 28.7662Z" fill="url(#paint14_linear_250_255)"/>
<path fill-rule="evenodd" clip-rule="evenodd" d="M63.2175 28.7662H56.7641C55.8361 28.7662 55.0769 28.007 55.0769 27.0791V7.12827C55.0769 6.15815 55.8361 5.4411 56.7641 5.4411H63.2175C64.1876 5.4411 64.9047 6.15815 64.9047 7.12827V27.0791C64.9047 28.007 64.1876 28.7662 63.2175 28.7662Z" fill="url(#paint15_linear_250_255)"/>
</g>
<defs>
<linearGradient id="paint0_linear_250_255" x1="0.749831" y1="17.0944" x2="11.936" y2="17.0944" gradientUnits="userSpaceOnUse">
<stop stop-color="#EBC35E"/>
<stop offset="1" stop-color="#FFEB86"/>
</linearGradient>
<linearGradient id="paint1_linear_250_255" x1="61.5489" y1="17.0944" x2="72.7356" y2="17.0944" gradientUnits="userSpaceOnUse">
<stop stop-color="#EBC35E"/>
<stop offset="1" stop-color="#FFEB86"/>
</linearGradient>
<linearGradient id="paint2_linear_250_255" x1="15.0365" y1="42.7255" x2="58.4495" y2="42.7255" gradientUnits="userSpaceOnUse">
<stop stop-color="#D1A87B"/>
<stop offset="1" stop-color="#F9D0A3"/>
</linearGradient>
<linearGradient id="paint3_linear_250_255" x1="20.4598" y1="29.7875" x2="27.7497" y2="29.7875" gradientUnits="userSpaceOnUse">
<stop stop-color="#EAEAEA"/>
<stop offset="1" stop-color="white"/>
</linearGradient>
<linearGradient id="paint4_linear_250_255" x1="29.2077" y1="29.5542" x2="34.4295" y2="29.5542" gradientUnits="userSpaceOnUse">
<stop stop-color="#EAEAEA"/>
<stop offset="1" stop-color="white"/>
</linearGradient>
<linearGradient id="paint5_linear_250_255" x1="35.5293" y1="29.6502" x2="41.0149" y2="29.6502" gradientUnits="userSpaceOnUse">
<stop stop-color="#EAEAEA"/>
<stop offset="1" stop-color="white"/>
</linearGradient>
<linearGradient id="paint6_linear_250_255" x1="42.9291" y1="29.6395" x2="53.024" y2="29.6395" gradientUnits="userSpaceOnUse">
<stop stop-color="#EAEAEA"/>
<stop offset="1" stop-color="white"/>
</linearGradient>
<linearGradient id="paint7_linear_250_255" x1="20.4598" y1="48.666" x2="27.7497" y2="48.666" gradientUnits="userSpaceOnUse">
<stop stop-color="#EAEAEA"/>
<stop offset="1" stop-color="white"/>
</linearGradient>
<linearGradient id="paint8_linear_250_255" x1="29.2077" y1="48.4332" x2="34.4295" y2="48.4332" gradientUnits="userSpaceOnUse">
<stop stop-color="#EAEAEA"/>
<stop offset="1" stop-color="white"/>
</linearGradient>
<linearGradient id="paint9_linear_250_255" x1="35.5293" y1="48.5277" x2="41.0149" y2="48.5277" gradientUnits="userSpaceOnUse">
<stop stop-color="#EAEAEA"/>
<stop offset="1" stop-color="white"/>
</linearGradient>
<linearGradient id="paint10_linear_250_255" x1="42.9291" y1="48.5175" x2="53.024" y2="48.5175" gradientUnits="userSpaceOnUse">
<stop stop-color="#EAEAEA"/>
<stop offset="1" stop-color="white"/>
</linearGradient>
<linearGradient id="paint11_linear_250_255" x1="21.9541" y1="39.0151" x2="51.9721" y2="39.0151" gradientUnits="userSpaceOnUse">
<stop stop-color="#EAEAEA"/>
<stop offset="1" stop-color="white"/>
</linearGradient>
<linearGradient id="paint12_linear_250_255" x1="21.9541" y1="57.2777" x2="51.9721" y2="57.2777" gradientUnits="userSpaceOnUse">
<stop stop-color="#EAEAEA"/>
<stop offset="1" stop-color="white"/>
</linearGradient>
<linearGradient id="paint13_linear_250_255" x1="15.0365" y1="17.094" x2="58.4495" y2="17.094" gradientUnits="userSpaceOnUse">
<stop stop-color="#EBC35E"/>
<stop offset="1" stop-color="#FFEB86"/>
</linearGradient>
<linearGradient id="paint14_linear_250_255" x1="8.56147" y1="17.0935" x2="18.4103" y2="17.0935" gradientUnits="userSpaceOnUse">
<stop stop-color="#B97D35"/>
<stop offset="1" stop-color="#E1A55D"/>
</linearGradient>
<linearGradient id="paint15_linear_250_255" x1="55.0748" y1="17.0935" x2="64.9237" y2="17.0935" gradientUnits="userSpaceOnUse">
<stop stop-color="#B97D35"/>
<stop offset="1" stop-color="#E1A55D"/>
</linearGradient>
<clipPath id="clip0_250_255">
<rect width="72" height="72" fill="white" transform="translate(0.75)"/>
</clipPath>
</defs>
</svg>
