<svg width="73" height="72" viewBox="0 0 73 72" fill="none" xmlns="http://www.w3.org/2000/svg">
<g clip-path="url(#clip0_250_274)">
<path fill-rule="evenodd" clip-rule="evenodd" d="M60.482 65.1247H11.9758C11.0479 65.1247 10.2886 64.4077 10.2886 63.4376V25.5184C10.2886 24.5905 11.0479 23.8312 11.9758 23.8312H60.482C61.4099 23.8312 62.1691 24.5905 62.1691 25.5184V63.4376C62.1691 64.4077 61.4099 65.1247 60.482 65.1247Z" fill="url(#paint0_linear_250_274)"/>
<path fill-rule="evenodd" clip-rule="evenodd" d="M60.482 27.2056H11.9758C11.0479 27.2056 10.2886 26.4464 10.2886 25.5184V23.0299C10.2886 17.2091 15.0127 12.485 20.8335 12.485H51.6665C57.4451 12.485 62.1691 17.2091 62.1691 23.0299V25.5184C62.1691 26.4464 61.4099 27.2056 60.482 27.2056Z" fill="url(#paint1_linear_250_274)"/>
<path fill-rule="evenodd" clip-rule="evenodd" d="M59.5541 23.8312C59.5119 19.6977 56.475 16.1124 52.7632 16.1124H19.7368C16.0251 16.1124 12.9882 19.6977 12.946 23.8312H59.5541Z" fill="url(#paint2_linear_250_274)"/>
<path fill-rule="evenodd" clip-rule="evenodd" d="M61.4943 14.8892C61.0725 14.8892 60.6085 14.7205 60.3133 14.3831C59.6384 13.7504 59.6384 12.6959 60.3133 12.0211L64.9952 7.33916C65.6279 6.66429 66.6823 6.66429 67.3572 7.33916C68.0321 8.01403 68.0321 9.06851 67.3572 9.74338L62.6753 14.3831C62.3379 14.7205 61.9161 14.8892 61.4943 14.8892Z" fill="url(#paint3_linear_250_274)"/>
<path fill-rule="evenodd" clip-rule="evenodd" d="M70.5629 18.4745H63.9407C63.0128 18.4745 62.2535 17.7153 62.2535 16.7873C62.2535 15.8594 63.0128 15.1002 63.9407 15.1002H70.5629C71.4908 15.1002 72.25 15.8594 72.25 16.7873C72.25 17.7153 71.4908 18.4745 70.5629 18.4745Z" fill="url(#paint4_linear_250_274)"/>
<path fill-rule="evenodd" clip-rule="evenodd" d="M11.0057 14.8892C10.5839 14.8892 10.12 14.7205 9.82471 14.3831L5.14281 9.74338C4.46794 9.06851 4.46794 8.01403 5.14281 7.33916C5.7755 6.66429 6.82998 6.66429 7.50485 7.33916L12.1867 12.0211C12.8616 12.6959 12.8616 13.7504 12.1867 14.3831C11.8493 14.7205 11.4275 14.8892 11.0057 14.8892Z" fill="url(#paint5_linear_250_274)"/>
<path fill-rule="evenodd" clip-rule="evenodd" d="M8.55931 18.4745H1.93717C1.00923 18.4745 0.25 17.7153 0.25 16.7873C0.25 15.8594 1.00923 15.1002 1.93717 15.1002H8.55931C9.48726 15.1002 10.2465 15.8594 10.2465 16.7873C10.2465 17.7153 9.48726 18.4745 8.55931 18.4745Z" fill="url(#paint6_linear_250_274)"/>
<path fill-rule="evenodd" clip-rule="evenodd" d="M58.837 61.5817V27.3743H13.663V61.5817H58.837Z" fill="url(#paint7_linear_250_274)"/>
<path fill-rule="evenodd" clip-rule="evenodd" d="M58.837 49.3497V45.9753H53.0163C52.0883 45.9753 51.3291 46.7346 51.3291 47.6625C51.3291 48.5905 52.0883 49.3497 53.0163 49.3497H58.837ZM13.663 45.9753V49.3497H19.4838C20.4117 49.3497 21.1709 48.5905 21.1709 47.6625C21.1709 46.7346 20.4117 45.9753 19.4838 45.9753H13.663Z" fill="url(#paint8_linear_250_274)"/>
<path fill-rule="evenodd" clip-rule="evenodd" d="M53.0163 57.659H19.4837C18.5136 57.659 17.7966 56.8998 17.7966 55.9719V39.3532C17.7966 38.4253 18.5136 37.6661 19.4837 37.6661H53.0163C53.9442 37.6661 54.7034 38.4253 54.7034 39.3532V55.9719C54.7034 56.8998 53.9442 57.659 53.0163 57.659Z" fill="url(#paint9_linear_250_274)"/>
<path fill-rule="evenodd" clip-rule="evenodd" d="M47.2799 46.2706H25.2201C24.2922 46.2706 23.533 45.5114 23.533 44.5835C23.533 43.6555 24.2922 42.8963 25.2201 42.8963H47.2799C48.2078 42.8963 48.9671 43.6555 48.9671 44.5835C48.9671 45.5114 48.2078 46.2706 47.2799 46.2706Z" fill="url(#paint10_linear_250_274)"/>
<path fill-rule="evenodd" clip-rule="evenodd" d="M47.2799 52.4288H25.2201C24.2922 52.4288 23.533 51.6696 23.533 50.7416C23.533 49.8137 24.2922 49.0544 25.2201 49.0544H47.2799C48.2078 49.0544 48.9671 49.8137 48.9671 50.7416C48.9671 51.6696 48.2078 52.4288 47.2799 52.4288Z" fill="url(#paint11_linear_250_274)"/>
<path fill-rule="evenodd" clip-rule="evenodd" d="M58.837 34.4182V31.0439H40.7843C39.8563 31.0439 39.0971 31.8031 39.0971 32.7311C39.0971 33.659 39.8563 34.4182 40.7843 34.4182H58.837ZM13.663 31.0439V34.4182H31.6736C32.6015 34.4182 33.3607 33.659 33.3607 32.7311C33.3607 31.8031 32.6015 31.0439 31.6736 31.0439H13.663Z" fill="url(#paint12_linear_250_274)"/>
<path fill-rule="evenodd" clip-rule="evenodd" d="M37.4521 36.1054H35.0057C31.8001 36.1054 29.185 33.4903 29.185 30.2425V25.5184C29.185 24.5905 29.9442 23.8312 30.8722 23.8312H41.6279C42.5558 23.8312 43.3151 24.5905 43.3151 25.5184V30.2425C43.3151 33.4903 40.6999 36.1054 37.4521 36.1054Z" fill="url(#paint13_linear_250_274)"/>
</g>
<defs>
<linearGradient id="paint0_linear_250_274" x1="10.3081" y1="44.4801" x2="62.1776" y2="44.4801" gradientUnits="userSpaceOnUse">
<stop stop-color="#EB8526"/>
<stop offset="1" stop-color="#FFAD4E"/>
</linearGradient>
<linearGradient id="paint1_linear_250_274" x1="10.3081" y1="19.8482" x2="62.1776" y2="19.8482" gradientUnits="userSpaceOnUse">
<stop stop-color="#EB8526"/>
<stop offset="1" stop-color="#FFAD4E"/>
</linearGradient>
<linearGradient id="paint2_linear_250_274" x1="12.949" y1="19.9688" x2="59.5364" y2="19.9688" gradientUnits="userSpaceOnUse">
<stop stop-color="#A14020"/>
<stop offset="1" stop-color="#C96848"/>
</linearGradient>
<linearGradient id="paint3_linear_250_274" x1="59.8012" y1="10.8699" x2="67.8545" y2="10.8699" gradientUnits="userSpaceOnUse">
<stop stop-color="#EB9B2C"/>
<stop offset="1" stop-color="#FFC354"/>
</linearGradient>
<linearGradient id="paint4_linear_250_274" x1="62.2426" y1="16.7735" x2="72.2357" y2="16.7735" gradientUnits="userSpaceOnUse">
<stop stop-color="#EB9B2C"/>
<stop offset="1" stop-color="#FFC354"/>
</linearGradient>
<linearGradient id="paint5_linear_250_274" x1="4.62902" y1="10.8699" x2="12.6848" y2="10.8699" gradientUnits="userSpaceOnUse">
<stop stop-color="#EB9B2C"/>
<stop offset="1" stop-color="#FFC354"/>
</linearGradient>
<linearGradient id="paint6_linear_250_274" x1="0.249831" y1="16.7735" x2="10.2432" y2="16.7735" gradientUnits="userSpaceOnUse">
<stop stop-color="#EB9B2C"/>
<stop offset="1" stop-color="#FFC354"/>
</linearGradient>
<linearGradient id="paint7_linear_250_274" x1="13.6526" y1="44.4797" x2="58.8336" y2="44.4797" gradientUnits="userSpaceOnUse">
<stop stop-color="#A14020"/>
<stop offset="1" stop-color="#C96848"/>
</linearGradient>
<linearGradient id="paint8_linear_250_274" x1="13.6526" y1="47.6655" x2="58.8336" y2="47.6655" gradientUnits="userSpaceOnUse">
<stop stop-color="#EB8F3A"/>
<stop offset="1" stop-color="#FFB762"/>
</linearGradient>
<linearGradient id="paint9_linear_250_274" x1="17.778" y1="47.6655" x2="54.7072" y2="47.6655" gradientUnits="userSpaceOnUse">
<stop stop-color="#EB9B2C"/>
<stop offset="1" stop-color="#FFC354"/>
</linearGradient>
<linearGradient id="paint10_linear_250_274" x1="23.5255" y1="44.5847" x2="48.9599" y2="44.5847" gradientUnits="userSpaceOnUse">
<stop stop-color="#A14020"/>
<stop offset="1" stop-color="#C96848"/>
</linearGradient>
<linearGradient id="paint11_linear_250_274" x1="23.5255" y1="50.7454" x2="48.9599" y2="50.7454" gradientUnits="userSpaceOnUse">
<stop stop-color="#A14020"/>
<stop offset="1" stop-color="#C96848"/>
</linearGradient>
<linearGradient id="paint12_linear_250_274" x1="13.6526" y1="32.7429" x2="58.8336" y2="32.7429" gradientUnits="userSpaceOnUse">
<stop stop-color="#EB8F3A"/>
<stop offset="1" stop-color="#FFB762"/>
</linearGradient>
<linearGradient id="paint13_linear_250_274" x1="29.1715" y1="29.964" x2="43.3142" y2="29.964" gradientUnits="userSpaceOnUse">
<stop stop-color="#EB9B2C"/>
<stop offset="1" stop-color="#FFC354"/>
</linearGradient>
<clipPath id="clip0_250_274">
<rect width="72" height="72" fill="white" transform="translate(0.25)"/>
</clipPath>
</defs>
</svg>
