<svg width="73" height="72" viewBox="0 0 73 72" fill="none" xmlns="http://www.w3.org/2000/svg">
<g clip-path="url(#clip0_250_291)">
<path fill-rule="evenodd" clip-rule="evenodd" d="M22.8941 51.543C22.4302 51.543 22.0084 51.3743 21.6709 51.0369C21.0382 50.4042 21.0382 49.3075 21.6709 48.6749L39.8924 30.4534C40.5672 29.7785 41.6217 29.7785 42.2966 30.4534C42.9715 31.0861 42.9715 32.1828 42.2966 32.8155L24.0751 51.0369C23.7377 51.3743 23.3159 51.543 22.8941 51.543Z" fill="url(#paint0_linear_250_291)"/>
<path fill-rule="evenodd" clip-rule="evenodd" d="M49.467 46.5659C43.2245 46.5659 37.3616 44.1617 32.9749 39.775C28.5883 35.3462 26.1419 29.5255 26.1419 23.283C26.1419 17.0826 28.5883 11.2197 32.9749 6.83304C37.3616 2.40422 43.2245 0 49.467 0C55.6674 0 61.5303 2.40422 65.917 6.83304C70.3036 11.2197 72.75 17.0826 72.75 23.283C72.75 29.5255 70.3036 35.3462 65.917 39.775C61.5303 44.1617 55.6674 46.5659 49.467 46.5659Z" fill="url(#paint1_linear_250_291)"/>
<path fill-rule="evenodd" clip-rule="evenodd" d="M49.467 42.601C44.279 42.601 39.4284 40.5764 35.8009 36.949C32.1314 33.2794 30.1489 28.4288 30.1489 23.2829C30.1489 18.1371 32.1314 13.2865 35.8009 9.61686C39.4284 5.98945 44.279 3.96484 49.467 3.96484C54.6129 3.96484 59.4635 5.98945 63.0909 9.61686C66.7605 13.2865 68.743 18.1371 68.743 23.2829C68.743 28.4288 66.7605 33.2794 63.0909 36.949C59.4635 40.5764 54.6129 42.601 49.467 42.601Z" fill="url(#paint2_linear_250_291)"/>
<path fill-rule="evenodd" clip-rule="evenodd" d="M49.467 39.3111C45.1647 39.3111 41.1577 37.6239 38.1208 34.587C31.8783 28.3444 31.8783 18.2214 38.1208 11.9789C41.1577 8.94199 45.1647 7.297 49.467 7.297C53.7271 7.297 57.7342 8.94199 60.7711 11.9789C63.7658 15.0158 65.453 19.0228 65.453 23.2829C65.453 27.543 63.7658 31.5923 60.7711 34.587C57.7342 37.6239 53.7271 39.3111 49.467 39.3111Z" fill="url(#paint3_linear_250_291)"/>
<path fill-rule="evenodd" clip-rule="evenodd" d="M12.3915 72C10.9152 72 9.56546 71.4095 8.51098 70.3972L2.35281 64.239C1.34051 63.1845 0.75 61.7926 0.75 60.3163C0.75 58.84 1.29833 57.4903 2.35281 56.4358L18.5496 40.239C19.6041 39.2267 20.9539 38.6362 22.4301 38.6362C23.9064 38.6362 25.2983 39.2267 26.3106 40.239L32.4688 46.3972C34.6199 48.5483 34.6199 52.0492 32.4688 54.2003L16.3141 70.3972C15.2597 71.4095 13.8678 72 12.3915 72Z" fill="url(#paint4_linear_250_291)"/>
</g>
<defs>
<linearGradient id="paint0_linear_250_291" x1="21.189" y1="40.7465" x2="42.7909" y2="40.7465" gradientUnits="userSpaceOnUse">
<stop stop-color="#49596A"/>
<stop offset="1" stop-color="#718192"/>
</linearGradient>
<linearGradient id="paint1_linear_250_291" x1="26.158" y1="23.2893" x2="72.7369" y2="23.2893" gradientUnits="userSpaceOnUse">
<stop stop-color="#20354A"/>
<stop offset="1" stop-color="#485D72"/>
</linearGradient>
<linearGradient id="paint2_linear_250_291" x1="30.134" y1="23.2893" x2="68.7602" y2="23.2893" gradientUnits="userSpaceOnUse">
<stop stop-color="#49596A"/>
<stop offset="1" stop-color="#718192"/>
</linearGradient>
<linearGradient id="paint3_linear_250_291" x1="33.4504" y1="23.2886" x2="65.4517" y2="23.2886" gradientUnits="userSpaceOnUse">
<stop stop-color="#BACEDE"/>
<stop offset="1" stop-color="#E2F6FF"/>
</linearGradient>
<linearGradient id="paint4_linear_250_291" x1="0.748988" y1="55.3147" x2="34.0949" y2="55.3147" gradientUnits="userSpaceOnUse">
<stop stop-color="#B07955"/>
<stop offset="1" stop-color="#D8A17D"/>
</linearGradient>
<clipPath id="clip0_250_291">
<rect width="72" height="72" fill="white" transform="translate(0.75)"/>
</clipPath>
</defs>
</svg>
