<svg width="73" height="72" viewBox="0 0 73 72" fill="none" xmlns="http://www.w3.org/2000/svg">
<g clip-path="url(#clip0_250_299)">
<path fill-rule="evenodd" clip-rule="evenodd" d="M57.7825 58.0386H14.7174C13.7895 58.0386 13.0303 57.2794 13.0303 56.3515V15.6063C13.0303 14.6784 13.7895 13.9191 14.7174 13.9191H57.7825C58.7104 13.9191 59.4696 14.6784 59.4696 15.6063V56.3515C59.4696 57.2794 58.7104 58.0386 57.7825 58.0386Z" fill="url(#paint0_linear_250_299)"/>
<path fill-rule="evenodd" clip-rule="evenodd" d="M50.9072 25.0545H21.5505C20.6225 25.0545 19.8633 24.2952 19.8633 23.3673C19.8633 22.4393 20.6225 21.6801 21.5505 21.6801H50.9072C51.8352 21.6801 52.5944 22.4393 52.5944 23.3673C52.5944 24.2952 51.8352 25.0545 50.9072 25.0545Z" fill="url(#paint1_linear_250_299)"/>
<path fill-rule="evenodd" clip-rule="evenodd" d="M50.9072 33.4481H21.5505C20.6225 33.4481 19.8633 32.6889 19.8633 31.761C19.8633 30.833 20.6225 30.0738 21.5505 30.0738H50.9072C51.8352 30.0738 52.5944 30.833 52.5944 31.761C52.5944 32.6889 51.8352 33.4481 50.9072 33.4481Z" fill="url(#paint2_linear_250_299)"/>
<path fill-rule="evenodd" clip-rule="evenodd" d="M50.9072 41.884H21.5505C20.6225 41.884 19.8633 41.1248 19.8633 40.1968C19.8633 39.2689 20.6225 38.5096 21.5505 38.5096H50.9072C51.8352 38.5096 52.5944 39.2689 52.5944 40.1968C52.5944 41.1248 51.8352 41.884 50.9072 41.884Z" fill="url(#paint3_linear_250_299)"/>
<path fill-rule="evenodd" clip-rule="evenodd" d="M50.9072 50.2777H21.5505C20.6225 50.2777 19.8633 49.5184 19.8633 48.5905C19.8633 47.6625 20.6225 46.9033 21.5505 46.9033H50.9072C51.8352 46.9033 52.5944 47.6625 52.5944 48.5905C52.5944 49.5184 51.8352 50.2777 50.9072 50.2777Z" fill="url(#paint4_linear_250_299)"/>
<path fill-rule="evenodd" clip-rule="evenodd" d="M12.1866 13.6239H5.39579C4.46784 13.6239 3.70862 12.8647 3.70862 11.9367V5.10369C3.70862 2.27768 5.9863 0 8.81231 0C11.5961 0 13.8738 2.27768 13.8738 5.10369V11.9367C13.8738 12.8647 13.1146 13.6239 12.1866 13.6239Z" fill="url(#paint5_linear_250_299)"/>
<path fill-rule="evenodd" clip-rule="evenodd" d="M8.81231 72C5.9863 72 3.70862 69.7223 3.70862 66.8963V60.0211C3.70862 59.0932 4.46784 58.3339 5.39579 58.3339H12.1866C13.1146 58.3339 13.8738 59.0932 13.8738 60.0211V66.8963C13.8738 69.7223 11.5961 72 8.81231 72Z" fill="url(#paint6_linear_250_299)"/>
<path fill-rule="evenodd" clip-rule="evenodd" d="M67.0619 13.6239H60.271C59.3431 13.6239 58.5839 12.8647 58.5839 11.9367V5.10369C58.5839 2.27768 60.8615 0 63.6876 0C66.4714 0 68.7491 2.27768 68.7491 5.10369V11.9367C68.7491 12.8647 68.032 13.6239 67.0619 13.6239Z" fill="url(#paint7_linear_250_299)"/>
<path fill-rule="evenodd" clip-rule="evenodd" d="M63.6876 72C60.8615 72 58.5839 69.7223 58.5839 66.8963V60.0211C58.5839 59.0932 59.3431 58.3339 60.271 58.3339H67.0619C68.032 58.3339 68.7491 59.0932 68.7491 60.0211V66.8963C68.7491 69.7223 66.4714 72 63.6876 72Z" fill="url(#paint8_linear_250_299)"/>
<path fill-rule="evenodd" clip-rule="evenodd" d="M68.6226 61.7083H58.7105C57.2764 61.7083 56.0953 60.5273 56.0953 59.0932V12.9069C56.0953 11.4306 57.2764 10.2496 58.7105 10.2496H68.6226C70.0989 10.2496 71.2799 11.4306 71.2799 12.9069V59.0932C71.2799 60.5273 70.0989 61.7083 68.6226 61.7083Z" fill="url(#paint9_linear_250_299)"/>
<path fill-rule="evenodd" clip-rule="evenodd" d="M13.7473 61.7083H3.83521C2.40111 61.7083 1.22009 60.5273 1.22009 59.0932V12.9069C1.22009 11.4306 2.40111 10.2496 3.83521 10.2496H13.7473C15.2236 10.2496 16.4046 11.4306 16.4046 12.9069V59.0932C16.4046 60.5273 15.2236 61.7083 13.7473 61.7083Z" fill="url(#paint10_linear_250_299)"/>
</g>
<defs>
<linearGradient id="paint0_linear_250_299" x1="13.0243" y1="35.9822" x2="59.4608" y2="35.9822" gradientUnits="userSpaceOnUse">
<stop stop-color="#D1A87B"/>
<stop offset="1" stop-color="#F9D0A3"/>
</linearGradient>
<linearGradient id="paint1_linear_250_299" x1="19.8835" y1="23.3623" x2="52.6016" y2="23.3623" gradientUnits="userSpaceOnUse">
<stop stop-color="#EAEAEA"/>
<stop offset="1" stop-color="white"/>
</linearGradient>
<linearGradient id="paint2_linear_250_299" x1="19.8835" y1="31.7761" x2="52.6016" y2="31.7761" gradientUnits="userSpaceOnUse">
<stop stop-color="#EAEAEA"/>
<stop offset="1" stop-color="white"/>
</linearGradient>
<linearGradient id="paint3_linear_250_299" x1="19.8835" y1="40.1907" x2="52.6016" y2="40.1907" gradientUnits="userSpaceOnUse">
<stop stop-color="#EAEAEA"/>
<stop offset="1" stop-color="white"/>
</linearGradient>
<linearGradient id="paint4_linear_250_299" x1="19.8835" y1="48.6027" x2="52.6016" y2="48.6027" gradientUnits="userSpaceOnUse">
<stop stop-color="#EAEAEA"/>
<stop offset="1" stop-color="white"/>
</linearGradient>
<linearGradient id="paint5_linear_250_299" x1="3.71726" y1="6.8176" x2="13.8844" y2="6.8176" gradientUnits="userSpaceOnUse">
<stop stop-color="#B97D35"/>
<stop offset="1" stop-color="#E1A55D"/>
</linearGradient>
<linearGradient id="paint6_linear_250_299" x1="3.71676" y1="65.1678" x2="13.8839" y2="65.1678" gradientUnits="userSpaceOnUse">
<stop stop-color="#B97D35"/>
<stop offset="1" stop-color="#E1A55D"/>
</linearGradient>
<linearGradient id="paint7_linear_250_299" x1="58.6003" y1="6.8176" x2="68.7685" y2="6.8176" gradientUnits="userSpaceOnUse">
<stop stop-color="#B97D35"/>
<stop offset="1" stop-color="#E1A55D"/>
</linearGradient>
<linearGradient id="paint8_linear_250_299" x1="58.6003" y1="65.1678" x2="68.7685" y2="65.1678" gradientUnits="userSpaceOnUse">
<stop stop-color="#B97D35"/>
<stop offset="1" stop-color="#E1A55D"/>
</linearGradient>
<linearGradient id="paint9_linear_250_299" x1="56.0865" y1="35.9925" x2="71.2828" y2="35.9925" gradientUnits="userSpaceOnUse">
<stop stop-color="#EBC35E"/>
<stop offset="1" stop-color="#FFEB86"/>
</linearGradient>
<linearGradient id="paint10_linear_250_299" x1="1.20284" y1="35.9925" x2="16.399" y2="35.9925" gradientUnits="userSpaceOnUse">
<stop stop-color="#EBC35E"/>
<stop offset="1" stop-color="#FFEB86"/>
</linearGradient>
<clipPath id="clip0_250_299">
<rect width="72" height="72" fill="white" transform="translate(0.25)"/>
</clipPath>
</defs>
</svg>
