<svg width="322" height="52" viewBox="0 0 322 52" fill="none" xmlns="http://www.w3.org/2000/svg">
<g filter="url(#filter0_d_50_245)">
<rect x="7.39136" y="6.8313" width="55.894" height="38.0728" rx="4.45532" fill="white" stroke="#D9D9D9" stroke-width="0.810059"/>
<path fill-rule="evenodd" clip-rule="evenodd" d="M24.2005 32.7664H20.7653L18.1894 22.939C18.0671 22.4869 17.8075 22.0873 17.4256 21.8989C16.4726 21.4255 15.4225 21.0488 14.2769 20.8588V20.4805H19.8106C20.5744 20.4805 21.1472 21.0488 21.2427 21.7089L22.5792 28.7977L26.0127 20.4805H29.3524L24.2005 32.7664ZM31.2618 32.7664H28.0176L30.689 20.4805H33.9333L31.2618 32.7664ZM38.1303 23.8842C38.2258 23.2225 38.7986 22.8441 39.4669 22.8441C40.517 22.7491 41.661 22.9391 42.6157 23.4108L43.1885 20.7656C42.2338 20.3873 41.1836 20.1973 40.2306 20.1973C37.0819 20.1973 34.7906 21.899 34.7906 24.2609C34.7906 26.0577 36.4136 27.0011 37.5592 27.5695C38.7986 28.1362 39.276 28.5145 39.1805 29.0813C39.1805 29.9313 38.2258 30.3097 37.2728 30.3097C36.1272 30.3097 34.9816 30.0263 33.9331 29.553L33.3603 32.1998C34.5059 32.6715 35.7453 32.8615 36.8909 32.8615C40.4216 32.9549 42.6157 31.2548 42.6157 28.7029C42.6157 25.4893 38.1303 25.301 38.1303 23.8842ZM53.9698 32.7664L51.3938 20.4805H48.6269C48.0541 20.4805 47.4813 20.8588 47.2904 21.4255L42.5203 32.7664H45.86L46.5266 30.9712H50.6301L51.012 32.7664H53.9698ZM49.1042 23.7891L50.0573 28.4195H47.3858L49.1042 23.7891Z" fill="#172B85"/>
</g>
<g filter="url(#filter1_d_50_245)">
<rect x="70.2188" y="6.8313" width="55.894" height="38.0728" rx="4.45532" fill="white" stroke="#D9D9D9" stroke-width="0.810059"/>
<path fill-rule="evenodd" clip-rule="evenodd" d="M85.8529 31.1187H83.3326C83.1601 31.1187 83.0135 31.244 82.9866 31.4142L81.9672 37.8769C81.947 38.0045 82.0457 38.1195 82.1751 38.1195H83.3783C83.5508 38.1195 83.6974 37.9941 83.7243 37.8236L83.9993 36.0805C84.0258 35.9098 84.1728 35.7846 84.3449 35.7846H85.1428C86.803 35.7846 87.7611 34.9812 88.0114 33.3892C88.1241 32.6927 88.0162 32.1455 87.6899 31.7621C87.3318 31.3414 86.6964 31.1187 85.8529 31.1187ZM86.1437 33.4791C86.0059 34.3835 85.3149 34.3835 84.6468 34.3835H84.2664L84.5332 32.6944C84.5491 32.5925 84.6375 32.5172 84.7407 32.5172H84.915C85.3701 32.5172 85.7995 32.5172 86.0214 32.7766C86.1536 32.9315 86.1941 33.1614 86.1437 33.4791ZM93.3866 33.4501H92.1797C92.0769 33.4501 91.988 33.5253 91.9722 33.6275L91.9188 33.965L91.8344 33.8427C91.5731 33.4634 90.9906 33.3367 90.409 33.3367C89.0752 33.3367 87.9362 34.3468 87.7143 35.7638C87.599 36.4705 87.7629 37.1464 88.1639 37.6177C88.5317 38.0511 89.058 38.2317 89.6841 38.2317C90.7586 38.2317 91.3547 37.5406 91.3547 37.5406L91.3008 37.8761C91.2805 38.0043 91.3792 38.1193 91.5078 38.1193H92.595C92.7679 38.1193 92.9137 37.9939 92.941 37.8234L93.5933 33.6926C93.614 33.5655 93.5156 33.4501 93.3866 33.4501ZM91.7043 35.7991C91.5878 36.4886 91.0405 36.9514 90.3427 36.9514C89.9922 36.9514 89.712 36.839 89.5323 36.626C89.3539 36.4146 89.286 36.1134 89.3428 35.7781C89.4516 35.0944 90.0081 34.6166 90.6953 34.6166C91.038 34.6166 91.3166 34.7303 91.5001 34.9452C91.684 35.1623 91.757 35.4652 91.7043 35.7991ZM98.6015 33.4499H99.8144C99.9843 33.4499 100.083 33.6404 99.9868 33.7797L95.9531 39.6023C95.8878 39.6966 95.7801 39.7527 95.6652 39.7527H94.4539C94.2833 39.7527 94.1837 39.5607 94.2825 39.421L95.5385 37.6481L94.2027 33.7277C94.1564 33.5915 94.2571 33.4499 94.402 33.4499H95.5937C95.7486 33.4499 95.8852 33.5516 95.9299 33.6998L96.6388 36.0675L98.3116 33.6036C98.3771 33.5074 98.4859 33.4499 98.6015 33.4499Z" fill="#253B80"/>
<path fill-rule="evenodd" clip-rule="evenodd" d="M111.751 37.8768L112.785 31.2959C112.801 31.1937 112.89 31.1185 112.993 31.1182H114.157C114.286 31.1182 114.384 31.2334 114.364 31.361L113.344 37.8234C113.318 37.994 113.171 38.1193 112.998 38.1193H111.958C111.83 38.1193 111.731 38.0044 111.751 37.8768ZM103.83 31.1185H101.309C101.137 31.1185 100.99 31.2439 100.963 31.414L99.9441 37.8768C99.9238 38.0044 100.023 38.1193 100.151 38.1193H101.445C101.565 38.1193 101.668 38.0316 101.686 37.9123L101.976 36.0803C102.002 35.9096 102.149 35.7845 102.321 35.7845H103.119C104.779 35.7845 105.737 34.981 105.988 33.3891C106.101 32.6926 105.992 32.1453 105.666 31.7619C105.308 31.3412 104.673 31.1185 103.83 31.1185ZM104.121 33.4789C103.983 34.3833 103.292 34.3833 102.624 34.3833H102.244L102.511 32.6943C102.527 32.5923 102.614 32.5171 102.718 32.5171H102.892C103.347 32.5171 103.777 32.5171 103.998 32.7765C104.131 32.9313 104.171 33.1612 104.121 33.4789ZM111.363 33.4499H110.157C110.053 33.4499 109.965 33.5252 109.95 33.6273L109.896 33.9648L109.811 33.8425C109.55 33.4632 108.968 33.3365 108.386 33.3365C107.053 33.3365 105.914 34.3466 105.692 35.7636C105.577 36.4704 105.74 37.1462 106.141 37.6176C106.51 38.0509 107.035 38.2315 107.661 38.2315C108.736 38.2315 109.332 37.5405 109.332 37.5405L109.278 37.8759C109.258 38.0042 109.357 38.1191 109.486 38.1191H110.573C110.745 38.1191 110.891 37.9938 110.918 37.8232L111.571 33.6925C111.591 33.5654 111.492 33.4499 111.363 33.4499ZM109.681 35.7989C109.565 36.4884 109.017 36.9513 108.319 36.9513C107.969 36.9513 107.688 36.8389 107.508 36.6259C107.33 36.4144 107.263 36.1133 107.319 35.778C107.429 35.0943 107.984 34.6164 108.672 34.6164C109.014 34.6164 109.293 34.7302 109.477 34.9451C109.661 35.1622 109.734 35.465 109.681 35.7989Z" fill="#179BD7"/>
<path d="M95.1799 28.8064L95.4897 26.8384L94.7996 26.8223H91.5039L93.7942 12.2999C93.8012 12.256 93.8244 12.2152 93.8582 12.1861C93.892 12.1571 93.9353 12.1411 93.9803 12.1411H99.5373C101.382 12.1411 102.655 12.525 103.32 13.2827C103.632 13.6382 103.83 14.0097 103.926 14.4184C104.027 14.8474 104.029 15.3598 103.93 15.9849L103.923 16.0305V16.431L104.235 16.6075C104.497 16.7467 104.706 16.9061 104.866 17.0886C105.132 17.3925 105.305 17.7788 105.378 18.2367C105.453 18.7077 105.428 19.2681 105.305 19.9027C105.163 20.6325 104.933 21.2682 104.622 21.7884C104.337 22.2677 103.973 22.6651 103.541 22.9733C103.129 23.2659 102.639 23.4881 102.085 23.6304C101.548 23.77 100.936 23.8406 100.265 23.8406H99.8324C99.5232 23.8406 99.2227 23.952 98.987 24.1517C98.7506 24.3555 98.5941 24.6338 98.5461 24.9384L98.5136 25.1156L97.9661 28.5842L97.9412 28.7116C97.9348 28.752 97.9235 28.7721 97.907 28.7858C97.8921 28.798 97.8708 28.8064 97.85 28.8064H95.1799Z" fill="#253B80"/>
<path d="M104.53 16.0767C104.513 16.1827 104.494 16.2911 104.473 16.4025C103.74 20.1651 101.233 21.4649 98.0308 21.4649H96.4004C96.0088 21.4649 95.6789 21.7492 95.6178 22.1355L94.783 27.4296L94.5466 28.9302C94.5069 29.1838 94.7025 29.4125 94.9583 29.4125H97.8502C98.1926 29.4125 98.4834 29.1637 98.5373 28.826L98.5657 28.679L99.1103 25.2239L99.1452 25.0344C99.1984 24.6955 99.4899 24.4467 99.8323 24.4467H100.265C103.066 24.4467 105.26 23.3092 105.901 20.0176C106.169 18.6425 106.03 17.4944 105.321 16.6869C105.107 16.4434 104.841 16.2413 104.53 16.0767Z" fill="#179BD7"/>
<path d="M103.763 15.7713C103.651 15.7388 103.535 15.7091 103.417 15.6825C103.298 15.6564 103.176 15.6333 103.05 15.6132C102.611 15.5421 102.129 15.5083 101.613 15.5083H97.2573C97.1501 15.5083 97.0483 15.5326 96.957 15.5764C96.7561 15.673 96.6069 15.8632 96.5707 16.096L95.644 21.9647L95.6174 22.1359C95.6785 21.7496 96.0085 21.4653 96.4 21.4653H98.0304C101.233 21.4653 103.74 20.1649 104.473 16.4029C104.495 16.2915 104.513 16.1831 104.529 16.077C104.344 15.9787 104.143 15.8946 103.927 15.8229C103.874 15.8051 103.819 15.7879 103.763 15.7713Z" fill="#222D65"/>
<path d="M96.5709 16.0959C96.607 15.863 96.7564 15.6729 96.9571 15.5769C97.0491 15.533 97.1504 15.5087 97.2575 15.5087H101.613C102.129 15.5087 102.611 15.5425 103.05 15.6136C103.176 15.6337 103.298 15.6569 103.417 15.6829C103.536 15.7096 103.651 15.7392 103.763 15.7718C103.819 15.7884 103.874 15.8055 103.928 15.8227C104.144 15.8944 104.345 15.9791 104.53 16.0769C104.748 14.6864 104.529 13.7397 103.777 12.8825C102.948 11.9387 101.452 11.5347 99.5379 11.5347H93.9807C93.5897 11.5347 93.2563 11.819 93.1957 12.2059L90.8812 26.8776C90.8355 27.1679 91.0594 27.4298 91.352 27.4298H94.7829L95.6443 21.9645L96.5709 16.0959Z" fill="#253B80"/>
</g>
<g filter="url(#filter2_d_50_245)">
<rect x="133.046" y="6.8313" width="55.894" height="38.0728" rx="4.45532" fill="white" stroke="#D9D9D9" stroke-width="0.810059"/>
<path fill-rule="evenodd" clip-rule="evenodd" d="M142.807 20.1973L137.501 31.9378H143.853L144.64 30.0659H146.44L147.227 31.9378H154.218V30.5091L154.841 31.9378H158.457L159.08 30.4789V31.9378H173.62L175.387 30.1145L177.043 31.9378L184.511 31.9529L179.188 26.1003L184.511 20.1973H177.159L175.438 21.9869L173.834 20.1973H158.018L156.659 23.2276L155.269 20.1973H148.931V21.5774L148.226 20.1973H142.807ZM164.518 21.8645H172.867L175.421 24.6228L178.057 21.8645H180.61L176.731 26.0987L180.61 30.2841H177.941L175.387 27.4937L172.738 30.2841H164.518V21.8645ZM166.58 25.1466V23.6087V23.6072H171.79L174.063 26.0667L171.689 28.5397H166.58V26.8607H171.135V25.1466H166.58ZM144.036 21.8645H147.132L150.651 29.8258V21.8645H154.042L156.76 27.5727L159.265 21.8645H162.64V30.2891H160.586L160.57 23.6876L157.576 30.2891H155.739L152.729 23.6876V30.2891H148.505L147.704 28.4004H143.378L142.579 30.2874H140.315L144.036 21.8645ZM144.116 26.6545L145.542 23.29L146.966 26.6545H144.116Z" fill="#1F72CD"/>
</g>
<g filter="url(#filter3_d_50_245)">
<rect x="195.874" y="6.8313" width="55.894" height="38.0728" rx="4.45532" fill="white" stroke="#D9D9D9" stroke-width="0.810059"/>
<path fill-rule="evenodd" clip-rule="evenodd" d="M224.226 34.2226C222.295 35.8885 219.791 36.8941 217.055 36.8941C210.949 36.8941 205.999 31.8871 205.999 25.7105C205.999 19.5339 210.949 14.5269 217.055 14.5269C219.791 14.5269 222.295 15.5325 224.226 17.1984C226.156 15.5325 228.66 14.5269 231.397 14.5269C237.502 14.5269 242.452 19.5339 242.452 25.7105C242.452 31.8871 237.502 36.8941 231.397 36.8941C228.66 36.8941 226.156 35.8885 224.226 34.2226Z" fill="#ED0006"/>
<path fill-rule="evenodd" clip-rule="evenodd" d="M224.226 34.2226C226.603 32.1713 228.11 29.1189 228.11 25.7105C228.11 22.3021 226.603 19.2497 224.226 17.1984C226.156 15.5325 228.66 14.5269 231.397 14.5269C237.502 14.5269 242.452 19.5339 242.452 25.7105C242.452 31.8871 237.502 36.8941 231.397 36.8941C228.66 36.8941 226.156 35.8885 224.226 34.2226Z" fill="#F9A000"/>
<path fill-rule="evenodd" clip-rule="evenodd" d="M224.226 34.2227C226.603 32.1714 228.11 29.1191 228.11 25.7107C228.11 22.3023 226.603 19.25 224.226 17.1987C221.849 19.25 220.341 22.3023 220.341 25.7107C220.341 29.1191 221.849 32.1714 224.226 34.2227Z" fill="#FF5E00"/>
</g>
<g filter="url(#filter4_d_50_245)">
<rect x="258.701" y="6.8313" width="55.894" height="38.0728" rx="4.45532" fill="white" stroke="#D9D9D9" stroke-width="0.810059"/>
<path fill-rule="evenodd" clip-rule="evenodd" d="M271.818 20.8987C272.579 20.9629 273.341 20.5133 273.817 19.9432C274.285 19.357 274.594 18.5701 274.515 17.7671C273.84 17.7992 273.008 18.2168 272.532 18.8029C272.095 19.3088 271.722 20.1278 271.818 20.8987ZM280.877 31.2411V18.7227H285.517C287.913 18.7227 289.587 20.3929 289.587 22.834C289.587 25.275 287.881 26.9613 285.454 26.9613H282.796V31.2411H280.877ZM274.507 21.0514C273.836 21.0124 273.224 21.2557 272.729 21.4522L272.729 21.4522C272.411 21.5787 272.142 21.6858 271.937 21.6858C271.707 21.6858 271.426 21.573 271.111 21.4463C270.698 21.2803 270.226 21.0905 269.731 21.0996C268.597 21.1157 267.542 21.7661 266.963 22.8019C265.773 24.8736 266.654 27.941 267.804 29.6273C268.367 30.4624 269.041 31.3778 269.93 31.3456C270.321 31.3307 270.602 31.2099 270.893 31.0849C271.228 30.9411 271.576 30.7916 272.119 30.7916C272.644 30.7916 272.976 30.9372 273.296 31.0769C273.6 31.2098 273.891 31.3374 274.324 31.3296C275.245 31.3135 275.824 30.4945 276.387 29.6594C276.995 28.7631 277.262 27.8883 277.302 27.7556L277.307 27.7403C277.306 27.7393 277.299 27.7358 277.285 27.7297L277.285 27.7297C277.082 27.6355 275.529 26.9158 275.514 24.986C275.499 23.3663 276.746 22.5456 276.942 22.4164L276.942 22.4163L276.942 22.4163C276.954 22.4085 276.962 22.4032 276.966 22.4005C276.173 21.212 274.935 21.0836 274.507 21.0514ZM293.093 31.3374C294.299 31.3374 295.417 30.7191 295.925 29.7394H295.964V31.241H297.741V25.0099C297.741 23.2032 296.313 22.0389 294.116 22.0389C292.077 22.0389 290.57 23.2193 290.515 24.8413H292.244C292.387 24.0704 293.093 23.5645 294.061 23.5645C295.235 23.5645 295.893 24.1186 295.893 25.1384V25.8289L293.497 25.9735C291.268 26.11 290.063 27.0334 290.063 28.6394C290.063 30.2614 291.308 31.3374 293.093 31.3374ZM293.608 29.8518C292.585 29.8518 291.934 29.354 291.934 28.5911C291.934 27.8042 292.561 27.3465 293.759 27.2742L295.893 27.1377V27.8444C295.893 29.0167 294.909 29.8518 293.608 29.8518ZM303.635 31.731C302.866 33.9232 301.985 34.6458 300.113 34.6458C299.97 34.6458 299.494 34.6298 299.383 34.5977V33.0961C299.502 33.1121 299.796 33.1282 299.947 33.1282C300.795 33.1282 301.271 32.7669 301.565 31.8274L301.739 31.2733L298.487 22.1595H300.494L302.755 29.555H302.794L305.055 22.1595H307.006L303.635 31.731ZM282.796 20.3606H285.009C286.675 20.3606 287.627 21.26 287.627 22.8418C287.627 24.4237 286.675 25.3311 285.001 25.3311H282.796V20.3606Z" fill="black"/>
</g>
<defs>
<filter id="filter0_d_50_245" x="0.86305" y="0.302992" width="68.9507" height="51.1294" filterUnits="userSpaceOnUse" color-interpolation-filters="sRGB">
<feFlood flood-opacity="0" result="BackgroundImageFix"/>
<feColorMatrix in="SourceAlpha" type="matrix" values="0 0 0 0 0 0 0 0 0 0 0 0 0 0 0 0 0 0 127 0" result="hardAlpha"/>
<feOffset/>
<feGaussianBlur stdDeviation="3.06164"/>
<feComposite in2="hardAlpha" operator="out"/>
<feColorMatrix type="matrix" values="0 0 0 0 0 0 0 0 0 0 0 0 0 0 0 0 0 0 0.07 0"/>
<feBlend mode="normal" in2="BackgroundImageFix" result="effect1_dropShadow_50_245"/>
<feBlend mode="normal" in="SourceGraphic" in2="effect1_dropShadow_50_245" result="shape"/>
</filter>
<filter id="filter1_d_50_245" x="63.6904" y="0.302992" width="68.9507" height="51.1294" filterUnits="userSpaceOnUse" color-interpolation-filters="sRGB">
<feFlood flood-opacity="0" result="BackgroundImageFix"/>
<feColorMatrix in="SourceAlpha" type="matrix" values="0 0 0 0 0 0 0 0 0 0 0 0 0 0 0 0 0 0 127 0" result="hardAlpha"/>
<feOffset/>
<feGaussianBlur stdDeviation="3.06164"/>
<feComposite in2="hardAlpha" operator="out"/>
<feColorMatrix type="matrix" values="0 0 0 0 0 0 0 0 0 0 0 0 0 0 0 0 0 0 0.07 0"/>
<feBlend mode="normal" in2="BackgroundImageFix" result="effect1_dropShadow_50_245"/>
<feBlend mode="normal" in="SourceGraphic" in2="effect1_dropShadow_50_245" result="shape"/>
</filter>
<filter id="filter2_d_50_245" x="126.518" y="0.302992" width="68.9507" height="51.1294" filterUnits="userSpaceOnUse" color-interpolation-filters="sRGB">
<feFlood flood-opacity="0" result="BackgroundImageFix"/>
<feColorMatrix in="SourceAlpha" type="matrix" values="0 0 0 0 0 0 0 0 0 0 0 0 0 0 0 0 0 0 127 0" result="hardAlpha"/>
<feOffset/>
<feGaussianBlur stdDeviation="3.06164"/>
<feComposite in2="hardAlpha" operator="out"/>
<feColorMatrix type="matrix" values="0 0 0 0 0 0 0 0 0 0 0 0 0 0 0 0 0 0 0.07 0"/>
<feBlend mode="normal" in2="BackgroundImageFix" result="effect1_dropShadow_50_245"/>
<feBlend mode="normal" in="SourceGraphic" in2="effect1_dropShadow_50_245" result="shape"/>
</filter>
<filter id="filter3_d_50_245" x="189.345" y="0.302992" width="68.9507" height="51.1294" filterUnits="userSpaceOnUse" color-interpolation-filters="sRGB">
<feFlood flood-opacity="0" result="BackgroundImageFix"/>
<feColorMatrix in="SourceAlpha" type="matrix" values="0 0 0 0 0 0 0 0 0 0 0 0 0 0 0 0 0 0 127 0" result="hardAlpha"/>
<feOffset/>
<feGaussianBlur stdDeviation="3.06164"/>
<feComposite in2="hardAlpha" operator="out"/>
<feColorMatrix type="matrix" values="0 0 0 0 0 0 0 0 0 0 0 0 0 0 0 0 0 0 0.07 0"/>
<feBlend mode="normal" in2="BackgroundImageFix" result="effect1_dropShadow_50_245"/>
<feBlend mode="normal" in="SourceGraphic" in2="effect1_dropShadow_50_245" result="shape"/>
</filter>
<filter id="filter4_d_50_245" x="252.173" y="0.302992" width="68.9507" height="51.1294" filterUnits="userSpaceOnUse" color-interpolation-filters="sRGB">
<feFlood flood-opacity="0" result="BackgroundImageFix"/>
<feColorMatrix in="SourceAlpha" type="matrix" values="0 0 0 0 0 0 0 0 0 0 0 0 0 0 0 0 0 0 127 0" result="hardAlpha"/>
<feOffset/>
<feGaussianBlur stdDeviation="3.06164"/>
<feComposite in2="hardAlpha" operator="out"/>
<feColorMatrix type="matrix" values="0 0 0 0 0 0 0 0 0 0 0 0 0 0 0 0 0 0 0.07 0"/>
<feBlend mode="normal" in2="BackgroundImageFix" result="effect1_dropShadow_50_245"/>
<feBlend mode="normal" in="SourceGraphic" in2="effect1_dropShadow_50_245" result="shape"/>
</filter>
</defs>
</svg>
