<svg width="186" height="52" viewBox="0 0 186 52" fill="none" xmlns="http://www.w3.org/2000/svg">
<g clip-path="url(#clip0_258_60)">
<path d="M86.6197 31.7427C84.8266 30.8476 83.3476 29.4603 82.1784 27.5787C81.0092 25.697 80.4257 23.3567 80.4257 20.5576C80.4257 17.7585 81.0092 15.407 82.1784 13.5009C83.3454 11.597 84.8266 10.1852 86.6197 9.26776C88.4106 8.35032 90.2441 7.8916 92.118 7.8916C93.9919 7.8916 95.6728 8.24121 97.3044 8.94042C98.9337 9.63963 100.309 10.7241 101.431 12.1938C102.554 13.6634 103.24 15.4872 103.496 17.6672L98.3277 18.0124C98.0966 16.6362 97.7375 15.5161 97.2528 14.6566C96.768 13.797 96.1082 13.1602 95.2756 12.746C94.443 12.334 93.3905 12.127 92.118 12.127C90.8456 12.127 89.7122 12.4721 88.718 13.1602C87.7239 13.8483 86.9496 14.8303 86.393 16.104C85.8365 17.3777 85.5604 18.863 85.5604 20.562C85.5604 22.2611 85.8387 23.7352 86.393 24.9844C86.9474 26.2359 87.7216 27.1934 88.718 27.8592C89.7122 28.525 90.8456 28.8568 92.118 28.8568C93.3209 28.8568 94.3847 28.6275 95.3093 28.1687C96.2339 27.71 96.9678 27.1133 97.5131 26.3784C98.0562 25.6436 98.3861 24.8753 98.5028 24.0715H92.1203V20.1813H104.019V32.5377H99.6832L101.106 24.0692H101.454C101.337 25.6747 100.864 27.1667 100.031 28.5428C99.1985 29.919 98.0943 31.0213 96.7186 31.8474C95.3429 32.6735 93.8101 33.0877 92.1225 33.0877C90.2486 33.0877 88.4151 32.6401 86.6242 31.745L86.6197 31.7427Z" fill="white"/>
<path d="M108.873 8.09668H114.008V32.5357H108.873V8.09668Z" fill="white"/>
<path d="M122.107 32.0858C120.732 31.4199 119.614 30.4001 118.759 29.0217C117.904 27.6455 117.475 25.9576 117.475 23.9624C117.475 21.9672 117.904 20.2459 118.759 18.8675C119.614 17.4914 120.729 16.4648 122.107 15.7879C123.483 15.1109 124.958 14.7725 126.531 14.7725C128.104 14.7725 129.578 15.1109 130.954 15.7879C132.33 16.4648 133.441 17.4914 134.284 18.8675C135.128 20.2437 135.55 21.9427 135.55 23.9624C135.55 25.9821 135.128 27.6455 134.284 29.0217C133.441 30.3978 132.33 31.4199 130.954 32.0858C129.578 32.7516 128.104 33.0834 126.531 33.0834C124.958 33.0834 123.483 32.7493 122.107 32.0858ZM129.41 27.8348C130.104 26.9285 130.451 25.6258 130.451 23.929C130.451 22.2322 130.104 20.9295 129.41 20.0232C128.717 19.1169 127.756 18.6627 126.531 18.6627C125.305 18.6627 124.345 19.1169 123.651 20.0232C122.958 20.9295 122.61 22.2322 122.61 23.929C122.61 25.6258 122.958 26.9285 123.651 27.8348C124.345 28.7411 125.305 29.1954 126.531 29.1954C127.756 29.1954 128.717 28.7433 129.41 27.8348Z" fill="white"/>
<path d="M139.017 8.43945H143.977V32.5333H139.017V8.43945ZM145.835 32.1214C144.9 31.48 144.181 30.5448 143.685 29.3156C143.187 28.0886 142.94 26.6256 142.94 24.9266V23.0338L143.982 23.379C143.982 24.7551 144.172 25.8797 144.554 26.7526C144.935 27.6255 145.438 28.249 146.062 28.6275C146.686 29.0061 147.368 29.1954 148.109 29.1954C149.289 29.1954 150.27 28.7589 151.058 27.8882C151.843 27.0153 152.238 25.628 152.238 23.7241C152.238 22.417 152.047 21.3905 151.666 20.6445C151.284 19.8985 150.793 19.3819 150.191 19.0946C149.59 18.8074 148.896 18.6649 148.111 18.6649C147.326 18.6649 146.659 18.8141 146.046 19.1125C145.434 19.4108 144.935 19.9096 144.554 20.6089C144.172 21.3081 143.982 22.2322 143.982 23.379L142.94 24.4122V22.5194C142.94 19.9965 143.49 18.0748 144.588 16.7543C145.685 15.436 147.207 14.7747 149.15 14.7747C150.954 14.7747 152.469 15.1532 153.695 15.9103C154.92 16.6674 155.84 17.7163 156.453 19.059C157.065 20.4018 157.373 21.9561 157.373 23.7219C157.373 25.4878 157.065 27.0777 156.453 28.4895C155.84 29.9013 154.915 31.0191 153.677 31.8452C152.44 32.6714 150.93 33.0856 149.15 33.0856C147.878 33.0856 146.773 32.7649 145.838 32.1214H145.835Z" fill="white"/>
<path d="M162.624 32.4131C161.758 32.0123 161.069 31.4311 160.56 30.674C160.05 29.9169 159.797 29.0328 159.797 28.0241C159.797 26.7392 160.149 25.706 160.854 24.9266C161.558 24.1472 162.454 23.5683 163.542 23.1875C164.628 22.8089 166.004 22.4705 167.669 22.1721L168.432 22.034C169.173 21.9205 169.705 21.8113 170.028 21.7067C170.351 21.6043 170.594 21.4372 170.757 21.2079C170.919 20.9785 170.953 20.6222 170.861 20.1413C170.744 19.6358 170.461 19.2639 170.01 19.0234C169.559 18.7829 168.895 18.6627 168.015 18.6627C167.066 18.6627 166.35 18.892 165.865 19.3507C165.38 19.8095 165.113 20.3372 165.066 20.934L159.967 20.5888C159.967 19.923 160.14 19.1592 160.488 18.2997C160.836 17.4402 161.603 16.6363 162.795 15.8903C163.987 15.1443 165.726 14.7725 168.015 14.7725C170.791 14.7725 172.824 15.3871 174.121 16.614C175.416 17.841 176.065 19.7516 176.065 22.3458V32.5333H171.105V28.0931H171.417C171.164 29.0106 170.787 29.8367 170.291 30.5715C169.792 31.3064 169.146 31.8965 168.347 32.3441C167.55 32.7916 166.594 33.0143 165.486 33.0143C164.444 33.0143 163.491 32.8139 162.624 32.4109V32.4131ZM169.025 28.6097C169.649 28.2646 170.151 27.7791 170.533 27.1467C170.914 26.5166 171.105 25.7995 171.105 24.9957V23.2743H171.417C171.256 23.7798 170.885 24.1806 170.306 24.479C169.727 24.7774 168.803 25.0647 167.53 25.3386C166.675 25.5234 166.027 25.7862 165.587 26.1291C165.147 26.4742 164.927 26.8973 164.927 27.4028C164.927 27.9773 165.118 28.4071 165.499 28.6944C165.881 28.9816 166.395 29.1241 167.043 29.1241C167.737 29.1241 168.396 28.9527 169.02 28.6075L169.025 28.6097Z" fill="white"/>
<path d="M180.23 8.09668H185.365V32.5357H180.23V8.09668Z" fill="white"/>
<path d="M80.0711 37.5864H80.9643V45.5405H80.0711V37.5864Z" fill="white"/>
<path d="M84.1713 37.5864H85.4078L89.885 45.2355L89.6225 45.3045V37.5887H90.5157V45.5427H89.1646L84.8019 38.0875L85.0645 38.0184V45.5405H84.1713V37.5864Z" fill="white"/>
<path d="M94.9188 45.3644C94.4722 45.1261 94.1221 44.7654 93.8708 44.2844C93.6194 43.8034 93.4937 43.2155 93.4937 42.5163L94.3869 42.4027C94.3869 43.2289 94.5732 43.8501 94.9435 44.2666C95.3138 44.683 95.8232 44.8923 96.4718 44.8923C97.0373 44.8923 97.4794 44.7542 97.8004 44.4781C98.1213 44.202 98.2806 43.8323 98.2806 43.3692C98.2806 43.0441 98.2111 42.7724 98.0697 42.5564C97.9283 42.3404 97.7285 42.1689 97.4682 42.0398C97.2079 41.9106 96.8757 41.7948 96.4718 41.6879C95.8232 41.5209 95.3115 41.3361 94.9368 41.1312C94.562 40.9264 94.2927 40.6881 94.1288 40.4142C93.965 40.1425 93.882 39.813 93.882 39.4255C93.882 39.0381 93.9852 38.704 94.1917 38.3967C94.3981 38.0894 94.6876 37.8467 95.0624 37.6686C95.4372 37.4904 95.8681 37.4014 96.3573 37.4014C97.1047 37.4014 97.7016 37.6107 98.1437 38.0315C98.5858 38.4524 98.808 39.0292 98.808 39.764L97.9148 39.8776C97.9148 39.3698 97.7712 38.969 97.4862 38.6729C97.1989 38.3767 96.8241 38.2297 96.3573 38.2297C95.8905 38.2297 95.5023 38.3322 95.2128 38.537C94.9233 38.7419 94.7774 39.0381 94.7774 39.4233C94.7774 39.6816 94.8403 39.8998 94.9659 40.0757C95.0916 40.2539 95.2779 40.4031 95.5225 40.5256C95.7671 40.6458 96.0835 40.7571 96.474 40.8551C97.1159 41.0221 97.632 41.2136 98.027 41.4296C98.4198 41.6456 98.7093 41.9084 98.8978 42.2201C99.084 42.5319 99.1783 42.9127 99.1783 43.3692C99.1783 43.8257 99.0706 44.2287 98.8574 44.585C98.6442 44.9413 98.3322 45.2196 97.9238 45.42C97.5153 45.6204 97.0328 45.7207 96.474 45.7207C95.8861 45.7207 95.3699 45.6004 94.921 45.3621L94.9188 45.3644Z" fill="white"/>
<path d="M102.152 37.5864H103.045V45.5405H102.152V37.5864ZM102.531 41.2005H104.443C105.101 41.2005 105.595 41.0936 105.927 40.8776C106.259 40.6616 106.425 40.3076 106.425 39.8154C106.425 39.3233 106.259 38.967 105.927 38.7466C105.595 38.5261 105.101 38.417 104.443 38.417H102.531V37.5864H104.672C105.009 37.5864 105.375 37.6421 105.772 37.7512C106.169 37.8603 106.526 38.0808 106.842 38.4103C107.159 38.7399 107.318 39.2075 107.318 39.8132C107.318 40.4189 107.159 40.8754 106.842 41.205C106.526 41.5345 106.169 41.755 105.772 41.8641C105.375 41.9732 105.009 42.0289 104.672 42.0289H102.531V41.1983V41.2005Z" fill="white"/>
<path d="M109.953 37.5864H110.846V45.5405H109.953V37.5864ZM110.731 37.5864H114.625V38.417H110.731V37.5864ZM110.731 40.9956H114.053V41.824H110.731V40.9956ZM110.731 44.7122H114.625V45.5427H110.731V44.7122Z" fill="white"/>
<path d="M119.143 45.2576C118.582 44.9459 118.126 44.4783 117.781 43.8548C117.433 43.229 117.26 42.4675 117.26 41.5656C117.26 40.6638 117.433 39.9 117.781 39.2765C118.128 38.6508 118.582 38.1831 119.143 37.8736C119.704 37.5641 120.305 37.4082 120.947 37.4082C121.504 37.4082 122.024 37.5218 122.511 37.7489C122.996 37.976 123.411 38.3256 123.755 38.7999C124.098 39.2743 124.327 39.8621 124.441 40.568L123.526 40.6927C123.373 39.9646 123.081 39.3767 122.65 38.9246C122.22 38.4748 121.652 38.2477 120.949 38.2477C120.361 38.2477 119.856 38.3947 119.432 38.6908C119.008 38.987 118.689 39.3834 118.476 39.8844C118.263 40.3854 118.155 40.9443 118.155 41.5656C118.155 42.1869 118.263 42.7503 118.476 43.2535C118.689 43.7568 119.008 44.1576 119.432 44.4515C119.856 44.7477 120.361 44.8947 120.949 44.8947C121.668 44.8947 122.242 44.6809 122.673 44.2534C123.104 43.8258 123.393 43.2446 123.537 42.5098L124.441 42.6233C124.327 43.327 124.098 43.9104 123.755 44.3736C123.411 44.8368 122.996 45.1775 122.511 45.3957C122.027 45.6161 121.506 45.7253 120.947 45.7253C120.305 45.7253 119.704 45.5694 119.143 45.2599V45.2576Z" fill="white"/>
<path d="M126.502 37.5864H133.122V38.417H126.502V37.5864ZM129.365 38.417H130.258V45.5427H129.365V38.417Z" fill="white"/>
<path d="M135.64 37.5864H136.533V45.5405H135.64V37.5864Z" fill="white"/>
<path d="M141.282 45.2576C140.721 44.9459 140.265 44.4783 139.92 43.8548C139.572 43.229 139.399 42.4675 139.399 41.5656C139.399 40.6638 139.572 39.9 139.92 39.2765C140.268 38.6508 140.721 38.1831 141.282 37.8736C141.843 37.5641 142.444 37.4082 143.086 37.4082C143.728 37.4082 144.327 37.5641 144.884 37.8736C145.44 38.1854 145.894 38.653 146.242 39.2765C146.589 39.9022 146.762 40.666 146.762 41.5656C146.762 42.4652 146.589 43.2313 146.242 43.8548C145.894 44.4805 145.443 44.9481 144.884 45.2576C144.327 45.5672 143.728 45.723 143.086 45.723C142.444 45.723 141.843 45.5672 141.282 45.2576ZM144.597 44.4493C145.016 44.1531 145.333 43.7546 145.548 43.2513C145.764 42.748 145.869 42.1847 145.869 41.5634C145.869 40.9421 145.761 40.3787 145.548 39.8755C145.335 39.3722 145.019 38.9714 144.597 38.6775C144.177 38.3813 143.672 38.2343 143.084 38.2343C142.496 38.2343 141.991 38.3813 141.567 38.6775C141.143 38.9736 140.824 39.3722 140.611 39.8755C140.398 40.3787 140.29 40.9421 140.29 41.5634C140.29 42.1847 140.398 42.748 140.611 43.2513C140.824 43.7546 141.143 44.1554 141.567 44.4493C141.991 44.7455 142.496 44.8924 143.084 44.8924C143.672 44.8924 144.175 44.7455 144.597 44.4493Z" fill="white"/>
<path d="M149.511 37.5864H150.748L155.225 45.2355L154.963 45.3045V37.5887H155.856V45.5427H154.505L150.142 38.0875L150.405 38.0184V45.5405H149.511V37.5864Z" fill="white"/>
<path d="M163.071 37.5864H163.964V45.5405H163.071V37.5864ZM163.85 40.9956H167.972V41.824H163.85V40.9956ZM167.858 37.5864H168.751V45.5405H167.858V37.5864Z" fill="white"/>
<path d="M173.338 45.3867C172.907 45.164 172.568 44.8322 172.324 44.3913C172.079 43.9526 171.958 43.4182 171.958 42.788V37.584H172.851V42.788C172.851 43.485 173.037 44.0105 173.408 44.3623C173.778 44.7142 174.243 44.8901 174.799 44.8901C175.356 44.8901 175.818 44.7142 176.186 44.3623C176.552 44.0105 176.736 43.485 176.736 42.788V37.584H177.629V42.788C177.629 43.4182 177.508 43.9504 177.263 44.3913C177.019 44.83 176.682 45.1618 176.256 45.3867C175.827 45.6093 175.342 45.7207 174.801 45.7207C174.261 45.7207 173.774 45.6093 173.34 45.3867H173.338Z" fill="white"/>
<path d="M180.834 37.5862H181.671V45.5403H180.834V37.5862ZM181.213 44.7119H183.354C183.904 44.7119 184.333 44.6006 184.642 44.3757C184.952 44.153 185.107 43.799 185.107 43.3135C185.107 42.8281 184.952 42.474 184.642 42.2513C184.333 42.0287 183.904 41.9173 183.354 41.9173H180.984V41.0867H182.896C183.475 41.0867 183.913 40.9754 184.207 40.7505C184.501 40.5278 184.647 40.1916 184.647 39.744C184.647 39.2964 184.499 38.9646 184.207 38.7441C183.913 38.5237 183.475 38.4146 182.896 38.4146H180.984V37.584H182.896C183.3 37.584 183.697 37.6374 184.088 37.7421C184.476 37.849 184.817 38.0605 185.107 38.3789C185.396 38.6974 185.542 39.1516 185.542 39.7417C185.542 40.0535 185.477 40.3452 185.347 40.6236C185.217 40.8997 185.022 41.1268 184.757 41.305C184.494 41.4831 184.171 41.5722 183.789 41.5722V41.3116C184.225 41.3116 184.611 41.394 184.945 41.5566C185.282 41.7191 185.54 41.9529 185.724 42.2558C185.908 42.5586 185.998 42.9105 185.998 43.3135C185.998 43.9348 185.838 44.4091 185.522 44.7409C185.206 45.0705 184.851 45.2865 184.463 45.3889C184.072 45.4913 183.702 45.5425 183.352 45.5425H181.211V44.7119H181.213Z" fill="white"/>
<path d="M48.2011 38.1137C48.2101 38.1694 48.2168 38.2473 48.2236 38.3408C47.3034 39.9307 46.3451 41.2535 45.4564 42.3245C45.4475 42.3379 45.4362 42.3513 45.425 42.3646C44.8595 43.0483 44.3209 43.6294 43.8384 44.1127L43.4299 44.509C42.3886 45.5044 41.6929 45.9743 41.6929 45.9743C41.6929 45.9743 41.6794 45.9653 41.6548 45.9453C41.3967 45.7516 39.8414 44.5602 37.9698 42.5673C37.9518 42.5495 37.9339 42.5294 37.9159 42.5094C38.9886 41.5897 40.2342 40.3427 41.4573 38.735C41.4752 38.7105 41.4954 38.686 41.5134 38.6593C42.4514 37.4167 43.3761 35.9559 44.1974 34.2591C44.5969 33.4419 44.9694 32.569 45.3083 31.6382C46.8097 33.5198 47.8937 35.9648 48.2011 38.1137Z" fill="url(#paint0_radial_258_60)"/>
<path d="M46.4394 27.7505C48.2146 28.305 49.9763 28.9084 51.7066 29.5854C51.3901 30.8814 51.0176 32.0927 50.6069 33.2217C50.3802 33.1905 50.2029 33.1571 50.1132 33.1304C49.6396 32.9857 48.2213 30.8123 47.7366 30.2823C47.2653 29.768 46.7267 29.3204 46.1634 28.8995C46.2621 28.5254 46.3541 28.1424 46.4394 27.7505Z" fill="url(#paint1_radial_258_60)"/>
<path d="M52.8175 5.52002V19.9674C52.8175 20.13 52.8174 20.2925 52.8152 20.4551C52.7883 22.9558 52.5571 25.2516 52.1801 27.3515C50.479 26.4452 48.7285 25.6302 46.9376 24.9065C47.1418 23.3677 47.2541 21.7221 47.2541 19.9674V5.52002H52.8175Z" fill="url(#paint2_radial_258_60)"/>
<path d="M23.6921 18.6094C24.0736 18.6539 24.4529 18.6984 24.8322 18.743V18.8855L23.6921 18.6094Z" fill="white"/>
<path d="M68.4551 29.9813L59.8508 32.3328C57.4405 30.44 54.8709 28.7833 52.1801 27.3515C50.479 26.4452 48.7285 25.6302 46.9376 24.9065C44.35 23.8577 41.6817 22.9937 38.955 22.3145L36.8723 21.809L30.4404 20.248V19.4108C32.5792 19.649 34.7157 19.8405 36.8723 19.9185C38.1291 19.9608 39.3903 19.9652 40.6606 19.9162C42.5435 19.8428 45.1669 19.3284 47.2541 19.295C47.7747 19.2861 48.264 19.3061 48.6993 19.3729C49.8618 19.5488 51.2959 19.9407 52.8152 20.4551C56.0873 21.5618 59.7543 23.2386 61.9424 24.5546C64.3123 25.9798 66.7562 27.8169 68.4551 29.9813Z" fill="white"/>
<path d="M71.0786 37.508C71.0561 37.7373 70.54 38.0268 70.3268 38.1849C69.2675 38.971 66.6799 40.7791 65.5601 41.2623C62.8423 42.4381 59.0496 42.5405 56.3094 43.9033C55.7529 44.1794 54.5028 45.1503 53.9912 45.1548L45.4564 42.3245L45.4138 42.3112C45.3465 41.2111 45.6584 40.189 45.5956 39.0489C45.5193 37.6705 45.039 35.8423 44.1974 34.2591C43.2526 32.4777 41.8478 31.0035 40.0479 30.8254C38.9527 30.7163 38.2144 31.0614 37.7386 31.6582C36.6457 33.0254 36.9442 35.7243 37.5007 37.3298L35.1847 35.6642C34.3835 32.6157 35.2879 30.0148 37.1147 28.8613C38.6587 27.8838 40.8648 27.9439 43.2549 29.6474C43.9955 30.1751 44.6889 30.8588 45.3083 31.6382C46.8097 33.5198 47.8937 35.9648 48.2011 38.1137C48.2101 38.1693 48.2168 38.2473 48.2236 38.3408C48.2819 39.1424 48.2999 41.1332 48.5422 41.2378L53.383 42.3045C54.4041 41.9905 55.616 40.8482 56.6371 40.6745C57.4428 40.5386 58.5424 40.6143 59.4491 40.5119C60.8988 40.3471 64.0946 39.8906 65.2302 39.1558C65.7217 38.8351 68.6503 36.6685 68.8635 36.3723C69.1553 35.9648 69.5188 33.9028 69.6468 33.7736C69.8981 33.738 69.8398 33.7625 69.9116 33.9251C70.0619 34.2613 71.0965 37.3209 71.0786 37.508Z" fill="white"/>
<path d="M18.398 9.31013L25.8219 11.5347L24.8322 12.0535V13.7147C23.6158 13.688 22.3994 13.6457 21.1853 13.5789L18.398 12.6971L1.57992 7.37951C1.42507 7.32606 1.36223 7.2125 1.28369 7.08334C0.758542 6.2149 0.419667 4.75857 0 3.79883L18.398 9.31013Z" fill="white"/>
<path d="M33.2143 13.7481C32.2897 13.7503 31.3651 13.7525 30.4404 13.7525V12.9175L33.2143 13.7481Z" fill="white"/>
<path d="M24.8322 22.486C24.8322 22.7777 24.8367 23.0672 24.8434 23.3522L23.2478 22.5439L18.398 20.9362L3.6042 16.0283C3.21371 15.799 2.83219 14.6121 2.65041 14.1356C2.35193 13.3562 2.10956 12.5434 1.90533 11.7373L18.582 17.2464C19.7715 17.9411 20.9699 18.6225 22.1728 19.2928C24.307 20.4841 22.6822 20.2971 24.8322 21.4639V22.486Z" fill="white"/>
<path d="M33.0953 26.1892L31.3404 26.6435L30.4427 26.1892C30.4427 26.0667 30.4404 25.9443 30.4404 25.8218V24.5503C30.8377 24.773 31.2349 24.9979 31.6299 25.2228C32.1214 25.5034 32.7116 25.7773 33.0953 26.1892Z" fill="white"/>
<path d="M25.5391 29.3267C25.6648 29.9123 25.8084 30.4824 25.9655 31.0346L18.8446 28.6052L5.55666 24.067L3.81067 19.6758L16.5914 24.0759L18.4721 25.1804L25.5391 29.3267Z" fill="white"/>
<path d="M31.9059 33.0631L31.8072 33.0297C31.8072 33.0297 31.7982 33.0097 31.7959 32.9985L31.9059 33.0631Z" fill="white"/>
<path d="M35.1196 13.8704L41.2822 18.4665L48.4525 17.6582L40.3217 13.0376C37.8508 12.9953 37.595 13.8838 35.1174 13.8682L35.1196 13.8704Z" fill="white"/>
<path d="M57.1443 32.2329L53.0284 33.4086C52.703 33.4509 51.3767 33.3329 50.6069 33.2216C50.3802 33.1904 50.2029 33.157 50.1132 33.1303C49.6396 32.9855 48.2213 30.8122 47.7366 30.2822C47.2653 29.7678 46.7267 29.3202 46.1634 28.8994C45.1939 28.1779 44.1436 27.541 43.2167 26.7861C44.2917 27.0934 45.3689 27.4119 46.4394 27.7503C48.2146 28.3048 49.9763 28.9083 51.7066 29.5852C52.8489 30.0306 53.9755 30.5093 55.0819 31.0282C55.6362 31.2887 56.5069 31.6561 56.9917 31.9701C57.1061 32.0436 57.2049 31.9567 57.1443 32.2329Z" fill="white"/>
<path d="M60.9549 21.5708C62.3037 22.7042 63.8118 23.6439 65.1224 24.8264C66.6395 26.1936 67.8469 27.8459 69.2854 29.271L67.3307 23.4569L60.9527 21.5708H60.9549Z" fill="white"/>
<path d="M54.0495 35.4349C53.8969 35.642 54.6128 36.1185 54.7609 36.2076C55.7327 36.8021 57.2385 37.2341 58.336 37.5659L55.4746 35.1343L54.0518 35.4371L54.0495 35.4349Z" fill="white"/>
<path d="M35.0029 44.6694C35.0209 44.685 35.0366 44.6984 35.0523 44.7095L34.958 44.6917C34.958 44.6917 34.9737 44.685 35.0029 44.6694Z" fill="url(#paint3_radial_258_60)"/>
<path d="M52.8174 5.52021L47.373 8.79805L47.2541 8.86931L40.3239 13.0401L36.8723 15.1177V25.5502C36.8723 26.7215 36.9576 27.8237 37.1147 28.8614C37.2628 29.8523 37.476 30.7831 37.7386 31.6583C38.6183 34.5999 40.0569 36.9001 41.5134 38.6593C41.5336 38.686 41.556 38.7105 41.5762 38.735C42.8599 40.2693 44.3815 41.4962 45.425 42.3647C44.8595 43.0483 44.3209 43.6295 43.8384 44.1127L43.4299 44.5091L41.8163 46.0701L41.6929 45.9743C41.6929 45.9743 41.6794 45.9654 41.6548 45.9454C41.3967 45.7516 39.8414 44.5603 37.9698 42.5673C37.9518 42.5495 37.9339 42.5295 37.9159 42.5094C35.8108 40.2604 33.3175 37.007 31.8072 33.03C31.8027 33.0211 31.7982 33.0099 31.7959 32.9988C31.0082 30.9145 30.4921 28.6321 30.4427 26.1893C30.4427 26.0668 30.4404 25.9443 30.4404 25.8219V12.283L47.2159 3.4248L52.8174 5.52021Z" fill="url(#paint4_radial_258_60)"/>
<path d="M35.0523 44.7095C37.1753 46.4731 38.3333 47.5776 39.1704 48.2545L35.6717 52C35.6717 52 21.5579 45.7672 18.8446 28.6053C18.6718 27.5098 18.5461 26.3674 18.4721 25.1805C18.4227 24.3945 18.398 23.5862 18.398 22.7578V9.21891L38.2189 0L43.8204 2.09541L25.8219 11.5348L24.8322 12.0536V22.4861C24.8322 22.7778 24.8367 23.0673 24.8434 23.3523C24.895 25.5168 25.1419 27.5031 25.5391 29.3268C25.6648 29.9125 25.8084 30.4825 25.9655 31.0348C27.8484 37.6862 31.7443 41.9527 35.0029 44.6694C35.0209 44.685 35.0366 44.6984 35.0523 44.7095Z" fill="url(#paint5_radial_258_60)"/>
</g>
<defs>
<radialGradient id="paint0_radial_258_60" cx="0" cy="0" r="1" gradientUnits="userSpaceOnUse" gradientTransform="translate(43.0933 46.021) scale(18.7638 18.6182)">
<stop stop-color="white"/>
<stop offset="1" stop-color="#D6D6D6"/>
</radialGradient>
<radialGradient id="paint1_radial_258_60" cx="0" cy="0" r="1" gradientUnits="userSpaceOnUse" gradientTransform="translate(48.9462 33.2395) scale(10.09 10.0116)">
<stop stop-color="white"/>
<stop offset="1" stop-color="#D6D6D6"/>
</radialGradient>
<radialGradient id="paint2_radial_258_60" cx="0" cy="0" r="1" gradientUnits="userSpaceOnUse" gradientTransform="translate(49.891 27.425) scale(10.7071 10.624)">
<stop stop-color="white"/>
<stop offset="1" stop-color="#D6D6D6"/>
</radialGradient>
<radialGradient id="paint3_radial_258_60" cx="0" cy="0" r="1" gradientUnits="userSpaceOnUse" gradientTransform="translate(35.0052 44.6895) scale(0.0359072 0.0356272)">
<stop stop-color="white"/>
<stop offset="1" stop-color="#F6F6F6"/>
</radialGradient>
<radialGradient id="paint4_radial_258_60" cx="0" cy="0" r="1" gradientUnits="userSpaceOnUse" gradientTransform="translate(41.6301 24.7485) scale(17.1323 16.9993)">
<stop stop-color="white"/>
<stop offset="1" stop-color="#D6D6D6"/>
</radialGradient>
<radialGradient id="paint5_radial_258_60" cx="0" cy="0" r="1" gradientUnits="userSpaceOnUse" gradientTransform="translate(31.1092 26) scale(20.5929 20.433)">
<stop stop-color="white"/>
<stop offset="1" stop-color="#D6D6D6"/>
</radialGradient>
<clipPath id="clip0_258_60">
<rect width="186" height="52" fill="white"/>
</clipPath>
</defs>
</svg>
