<svg width="186" height="52" viewBox="0 0 186 52" fill="none" xmlns="http://www.w3.org/2000/svg">
<g clip-path="url(#clip0_250_87)">
<path d="M86.6197 31.7429C84.8266 30.8477 83.3476 29.4604 82.1784 27.5788C81.0092 25.6972 80.4257 23.3568 80.4257 20.5577C80.4257 17.7587 81.0092 15.4072 82.1784 13.501C83.3454 11.5971 84.8266 10.1853 86.6197 9.26791C88.4106 8.35047 90.2441 7.89175 92.118 7.89175C93.9919 7.89175 95.6728 8.24136 97.3044 8.94057C98.9337 9.63978 100.309 10.7242 101.431 12.1939C102.554 13.6636 103.24 15.4873 103.496 17.6674L98.3277 18.0125C98.0966 16.6364 97.7375 15.5163 97.2528 14.6567C96.768 13.7972 96.1082 13.1603 95.2756 12.7462C94.443 12.3342 93.3905 12.1271 92.118 12.1271C90.8456 12.1271 89.7122 12.4723 88.718 13.1603C87.7239 13.8484 86.9496 14.8304 86.393 16.1042C85.8365 17.3779 85.5604 18.8631 85.5604 20.5622C85.5604 22.2612 85.8387 23.7354 86.393 24.9846C86.9474 26.236 87.7216 27.1936 88.718 27.8594C89.7122 28.5252 90.8456 28.857 92.118 28.857C93.3209 28.857 94.3847 28.6276 95.3093 28.1689C96.2339 27.7102 96.9678 27.1134 97.5131 26.3786C98.0562 25.6437 98.3861 24.8755 98.5028 24.0716H92.1203V20.1814H104.019V32.5379H99.6832L101.106 24.0694H101.454C101.337 25.6749 100.864 27.1668 100.031 28.543C99.1985 29.9192 98.0943 31.0214 96.7186 31.8476C95.3429 32.6737 93.8101 33.0879 92.1225 33.0879C90.2486 33.0879 88.4151 32.6403 86.6242 31.7451L86.6197 31.7429Z" fill="black"/>
<path d="M108.873 8.09662H114.008V32.5356H108.873V8.09662Z" fill="black"/>
<path d="M122.107 32.0858C120.732 31.42 119.614 30.4002 118.759 29.0218C117.904 27.6456 117.475 25.9577 117.475 23.9625C117.475 21.9673 117.904 20.246 118.759 18.8676C119.614 17.4914 120.729 16.4649 122.107 15.788C123.483 15.111 124.958 14.7725 126.531 14.7725C128.104 14.7725 129.578 15.111 130.954 15.788C132.33 16.4649 133.441 17.4914 134.284 18.8676C135.128 20.2438 135.55 21.9428 135.55 23.9625C135.55 25.9822 135.128 27.6456 134.284 29.0218C133.441 30.3979 132.33 31.42 130.954 32.0858C129.578 32.7516 128.104 33.0834 126.531 33.0834C124.958 33.0834 123.483 32.7494 122.107 32.0858ZM129.41 27.8349C130.104 26.9286 130.451 25.6259 130.451 23.9291C130.451 22.2323 130.104 20.9296 129.41 20.0233C128.717 19.117 127.756 18.6627 126.531 18.6627C125.305 18.6627 124.345 19.117 123.651 20.0233C122.958 20.9296 122.61 22.2323 122.61 23.9291C122.61 25.6259 122.958 26.9286 123.651 27.8349C124.345 28.7412 125.305 29.1955 126.531 29.1955C127.756 29.1955 128.717 28.7434 129.41 27.8349Z" fill="black"/>
<path d="M139.017 8.43954H143.977V32.5334H139.017V8.43954ZM145.835 32.1215C144.9 31.4801 144.181 30.5449 143.685 29.3157C143.187 28.0887 142.94 26.6257 142.94 24.9267V23.0339L143.982 23.3791C143.982 24.7552 144.172 25.8798 144.554 26.7527C144.935 27.6256 145.438 28.2491 146.062 28.6276C146.686 29.0062 147.368 29.1955 148.109 29.1955C149.289 29.1955 150.27 28.759 151.058 27.8883C151.843 27.0154 152.238 25.6281 152.238 23.7242C152.238 22.4171 152.047 21.3906 151.666 20.6446C151.284 19.8986 150.793 19.382 150.191 19.0947C149.59 18.8075 148.896 18.665 148.111 18.665C147.326 18.665 146.659 18.8142 146.046 19.1125C145.434 19.4109 144.935 19.9097 144.554 20.609C144.172 21.3082 143.982 22.2323 143.982 23.3791L142.94 24.4123V22.5195C142.94 19.9966 143.49 18.0749 144.588 16.7544C145.685 15.4361 147.207 14.7748 149.15 14.7748C150.954 14.7748 152.469 15.1533 153.695 15.9104C154.92 16.6675 155.84 17.7164 156.453 19.0591C157.065 20.4019 157.373 21.9562 157.373 23.722C157.373 25.4878 157.065 27.0778 156.453 28.4896C155.84 29.9013 154.915 31.0192 153.677 31.8453C152.44 32.6715 150.93 33.0857 149.15 33.0857C147.878 33.0857 146.773 32.765 145.838 32.1215H145.835Z" fill="black"/>
<path d="M162.624 32.4132C161.758 32.0123 161.069 31.4312 160.56 30.674C160.05 29.9169 159.797 29.0329 159.797 28.0242C159.797 26.7393 160.149 25.7061 160.854 24.9267C161.558 24.1473 162.454 23.5684 163.542 23.1876C164.628 22.809 166.004 22.4706 167.669 22.1722L168.432 22.0341C169.173 21.9205 169.705 21.8114 170.028 21.7068C170.351 21.6043 170.594 21.4373 170.757 21.208C170.919 20.9786 170.953 20.6223 170.861 20.1413C170.744 19.6358 170.461 19.264 170.01 19.0235C169.559 18.783 168.895 18.6627 168.015 18.6627C167.066 18.6627 166.35 18.8921 165.865 19.3508C165.38 19.8095 165.113 20.3373 165.066 20.9341L159.967 20.5889C159.967 19.9231 160.14 19.1593 160.488 18.2998C160.836 17.4402 161.603 16.6364 162.795 15.8904C163.987 15.1444 165.726 14.7725 168.015 14.7725C170.791 14.7725 172.824 15.3871 174.121 16.6141C175.416 17.8411 176.065 19.7516 176.065 22.3459V32.5334H171.105V28.0932H171.417C171.164 29.0106 170.787 29.8368 170.291 30.5716C169.792 31.3065 169.146 31.8966 168.347 32.3441C167.55 32.7917 166.594 33.0144 165.486 33.0144C164.444 33.0144 163.491 32.814 162.624 32.4109V32.4132ZM169.025 28.6098C169.649 28.2647 170.151 27.7792 170.533 27.1468C170.914 26.5166 171.105 25.7996 171.105 24.9957V23.2744H171.417C171.256 23.7799 170.885 24.1807 170.306 24.4791C169.727 24.7775 168.803 25.0648 167.53 25.3387C166.675 25.5235 166.027 25.7862 165.587 26.1292C165.147 26.4743 164.927 26.8974 164.927 27.4029C164.927 27.9774 165.118 28.4072 165.499 28.6944C165.881 28.9817 166.395 29.1242 167.043 29.1242C167.737 29.1242 168.396 28.9527 169.02 28.6076L169.025 28.6098Z" fill="black"/>
<path d="M180.23 8.09662H185.365V32.5356H180.23V8.09662Z" fill="black"/>
<path d="M80.0711 37.586H80.9643V45.5401H80.0711V37.586Z" fill="black"/>
<path d="M84.1713 37.586H85.4078L89.885 45.235L89.6225 45.304V37.5882H90.5157V45.5423H89.1646L84.8019 38.087L85.0645 38.018V45.5401H84.1713V37.586Z" fill="black"/>
<path d="M94.9188 45.3642C94.4722 45.1259 94.1221 44.7652 93.8708 44.2842C93.6194 43.8032 93.4937 43.2153 93.4937 42.5161L94.3869 42.4025C94.3869 43.2287 94.5732 43.8499 94.9435 44.2664C95.3138 44.6828 95.8232 44.8921 96.4718 44.8921C97.0373 44.8921 97.4794 44.754 97.8004 44.4779C98.1213 44.2018 98.2806 43.8321 98.2806 43.369C98.2806 43.0439 98.2111 42.7722 98.0697 42.5562C97.9283 42.3402 97.7285 42.1687 97.4682 42.0396C97.2079 41.9104 96.8757 41.7946 96.4718 41.6877C95.8232 41.5207 95.3115 41.3359 94.9368 41.131C94.562 40.9262 94.2927 40.6879 94.1288 40.414C93.965 40.1423 93.882 39.8128 93.882 39.4253C93.882 39.0379 93.9852 38.7038 94.1917 38.3965C94.3981 38.0892 94.6876 37.8465 95.0624 37.6684C95.4372 37.4902 95.8681 37.4012 96.3573 37.4012C97.1047 37.4012 97.7016 37.6105 98.1437 38.0313C98.5858 38.4522 98.808 39.029 98.808 39.7638L97.9148 39.8774C97.9148 39.3697 97.7712 38.9688 97.4862 38.6727C97.1989 38.3765 96.8241 38.2295 96.3573 38.2295C95.8905 38.2295 95.5023 38.332 95.2128 38.5368C94.9233 38.7417 94.7774 39.0379 94.7774 39.4231C94.7774 39.6814 94.8403 39.8996 94.9659 40.0755C95.0916 40.2537 95.2779 40.4029 95.5225 40.5254C95.7671 40.6456 96.0835 40.7569 96.474 40.8549C97.1159 41.0219 97.632 41.2134 98.027 41.4294C98.4198 41.6454 98.7093 41.9082 98.8978 42.2199C99.084 42.5317 99.1783 42.9125 99.1783 43.369C99.1783 43.8255 99.0706 44.2285 98.8574 44.5848C98.6442 44.9411 98.3322 45.2194 97.9238 45.4198C97.5153 45.6202 97.0328 45.7205 96.474 45.7205C95.8861 45.7205 95.3699 45.6002 94.921 45.3619L94.9188 45.3642Z" fill="black"/>
<path d="M102.152 37.586H103.045V45.5401H102.152V37.586ZM102.531 41.2001H104.443C105.101 41.2001 105.595 41.0932 105.927 40.8772C106.259 40.6612 106.425 40.3071 106.425 39.815C106.425 39.3229 106.259 38.9666 105.927 38.7461C105.595 38.5257 105.101 38.4166 104.443 38.4166H102.531V37.586H104.672C105.009 37.586 105.375 37.6417 105.772 37.7508C106.169 37.8599 106.526 38.0803 106.842 38.4099C107.159 38.7395 107.318 39.2071 107.318 39.8128C107.318 40.4185 107.159 40.875 106.842 41.2045C106.526 41.5341 106.169 41.7545 105.772 41.8636C105.375 41.9728 105.009 42.0284 104.672 42.0284H102.531V41.1978V41.2001Z" fill="black"/>
<path d="M109.953 37.586H110.846V45.5401H109.953V37.586ZM110.731 37.586H114.625V38.4166H110.731V37.586ZM110.731 40.9952H114.053V41.8236H110.731V40.9952ZM110.731 44.7117H114.625V45.5423H110.731V44.7117Z" fill="black"/>
<path d="M119.143 45.2573C118.582 44.9455 118.126 44.4779 117.781 43.8544C117.433 43.2287 117.26 42.4671 117.26 41.5653C117.26 40.6634 117.433 39.8996 117.781 39.2761C118.128 38.6504 118.582 38.1828 119.143 37.8733C119.704 37.5637 120.305 37.4079 120.947 37.4079C121.504 37.4079 122.024 37.5214 122.511 37.7486C122.996 37.9757 123.411 38.3253 123.755 38.7996C124.098 39.2739 124.327 39.8618 124.441 40.5677L123.526 40.6924C123.373 39.9642 123.081 39.3763 122.65 38.9243C122.22 38.4745 121.652 38.2473 120.949 38.2473C120.361 38.2473 119.856 38.3943 119.432 38.6905C119.008 38.9866 118.689 39.383 118.476 39.884C118.263 40.3851 118.155 40.944 118.155 41.5653C118.155 42.1865 118.263 42.7499 118.476 43.2532C118.689 43.7564 119.008 44.1573 119.432 44.4512C119.856 44.7473 120.361 44.8943 120.949 44.8943C121.668 44.8943 122.242 44.6805 122.673 44.253C123.104 43.8255 123.393 43.2443 123.537 42.5094L124.441 42.623C124.327 43.3267 124.098 43.9101 123.755 44.3733C123.411 44.8364 122.996 45.1771 122.511 45.3953C122.027 45.6158 121.506 45.7249 120.947 45.7249C120.305 45.7249 119.704 45.569 119.143 45.2595V45.2573Z" fill="black"/>
<path d="M126.502 37.586H133.122V38.4166H126.502V37.586ZM129.365 38.4166H130.258V45.5423H129.365V38.4166Z" fill="black"/>
<path d="M135.64 37.586H136.533V45.5401H135.64V37.586Z" fill="black"/>
<path d="M141.282 45.2573C140.721 44.9455 140.265 44.4779 139.92 43.8544C139.572 43.2287 139.399 42.4671 139.399 41.5653C139.399 40.6634 139.572 39.8996 139.92 39.2761C140.268 38.6504 140.721 38.1828 141.282 37.8733C141.843 37.5637 142.444 37.4079 143.086 37.4079C143.728 37.4079 144.327 37.5637 144.884 37.8733C145.44 38.185 145.894 38.6526 146.242 39.2761C146.589 39.9019 146.762 40.6656 146.762 41.5653C146.762 42.4649 146.589 43.2309 146.242 43.8544C145.894 44.4801 145.443 44.9478 144.884 45.2573C144.327 45.5668 143.728 45.7227 143.086 45.7227C142.444 45.7227 141.843 45.5668 141.282 45.2573ZM144.597 44.449C145.016 44.1528 145.333 43.7542 145.548 43.2509C145.764 42.7477 145.869 42.1843 145.869 41.563C145.869 40.9418 145.761 40.3784 145.548 39.8751C145.335 39.3719 145.019 38.9711 144.597 38.6771C144.177 38.381 143.672 38.234 143.084 38.234C142.496 38.234 141.991 38.381 141.567 38.6771C141.143 38.9733 140.824 39.3719 140.611 39.8751C140.398 40.3784 140.29 40.9418 140.29 41.563C140.29 42.1843 140.398 42.7477 140.611 43.2509C140.824 43.7542 141.143 44.155 141.567 44.449C141.991 44.7451 142.496 44.8921 143.084 44.8921C143.672 44.8921 144.175 44.7451 144.597 44.449Z" fill="black"/>
<path d="M149.511 37.586H150.748L155.225 45.235L154.963 45.304V37.5882H155.856V45.5423H154.505L150.142 38.087L150.405 38.018V45.5401H149.511V37.586Z" fill="black"/>
<path d="M163.071 37.586H163.964V45.5401H163.071V37.586ZM163.85 40.9952H167.972V41.8236H163.85V40.9952ZM167.858 37.586H168.751V45.5401H167.858V37.586Z" fill="black"/>
<path d="M173.338 45.3864C172.907 45.1638 172.568 44.832 172.324 44.3911C172.079 43.9524 171.958 43.418 171.958 42.7878V37.5838H172.851V42.7878C172.851 43.4848 173.037 44.0103 173.408 44.3621C173.778 44.714 174.243 44.8899 174.799 44.8899C175.356 44.8899 175.818 44.714 176.186 44.3621C176.552 44.0103 176.736 43.4848 176.736 42.7878V37.5838H177.629V42.7878C177.629 43.418 177.508 43.9502 177.263 44.3911C177.019 44.8297 176.682 45.1615 176.256 45.3864C175.827 45.6091 175.342 45.7205 174.801 45.7205C174.261 45.7205 173.774 45.6091 173.34 45.3864H173.338Z" fill="black"/>
<path d="M180.834 37.586H181.671V45.5401H180.834V37.586ZM181.213 44.7117H183.354C183.904 44.7117 184.333 44.6004 184.642 44.3755C184.952 44.1528 185.107 43.7987 185.107 43.3133C185.107 42.8279 184.952 42.4738 184.642 42.2511C184.333 42.0284 183.904 41.9171 183.354 41.9171H180.984V41.0865H182.896C183.475 41.0865 183.913 40.9752 184.207 40.7503C184.501 40.5276 184.647 40.1913 184.647 39.7438C184.647 39.2962 184.499 38.9644 184.207 38.7439C183.913 38.5235 183.475 38.4144 182.896 38.4144H180.984V37.5838H182.896C183.3 37.5838 183.697 37.6372 184.088 37.7419C184.476 37.8488 184.817 38.0603 185.107 38.3787C185.396 38.6972 185.542 39.1514 185.542 39.7415C185.542 40.0533 185.477 40.345 185.347 40.6233C185.217 40.8995 185.022 41.1266 184.757 41.3047C184.494 41.4829 184.171 41.572 183.789 41.572V41.3114C184.225 41.3114 184.611 41.3938 184.945 41.5564C185.282 41.7189 185.54 41.9527 185.724 42.2556C185.908 42.5584 185.998 42.9103 185.998 43.3133C185.998 43.9346 185.838 44.4089 185.522 44.7407C185.206 45.0702 184.851 45.2862 184.463 45.3887C184.072 45.4911 183.702 45.5423 183.352 45.5423H181.211V44.7117H181.213Z" fill="black"/>
<path d="M48.2011 38.1137C48.2101 38.1694 48.2168 38.2473 48.2235 38.3409C47.3034 39.9308 46.3451 41.2535 45.4564 42.3246C45.4475 42.338 45.4362 42.3513 45.425 42.3647C44.8595 43.0483 44.3209 43.6295 43.8384 44.1127L43.4299 44.5091C42.3886 45.5044 41.6929 45.9743 41.6929 45.9743C41.6929 45.9743 41.6794 45.9654 41.6547 45.9454C41.3967 45.7516 39.8414 44.5603 37.9698 42.5673C37.9518 42.5495 37.9338 42.5295 37.9159 42.5094C38.9886 41.5898 40.2342 40.3427 41.4573 38.735C41.4752 38.7105 41.4954 38.686 41.5134 38.6593C42.4514 37.4167 43.3761 35.956 44.1974 34.2592C44.5969 33.4419 44.9694 32.569 45.3083 31.6382C46.8097 33.5199 47.8936 35.9649 48.2011 38.1137Z" fill="url(#paint0_radial_250_87)"/>
<path d="M46.4394 27.7503C48.2146 28.3047 49.9763 28.9082 51.7066 29.5851C51.3901 30.8811 51.0176 32.0925 50.6069 33.2215C50.3802 33.1903 50.2029 33.1569 50.1132 33.1302C49.6396 32.9854 48.2213 30.8121 47.7366 30.2821C47.2653 29.7677 46.7267 29.3201 46.1634 28.8993C46.2621 28.5252 46.3541 28.1422 46.4394 27.7503Z" fill="url(#paint1_radial_250_87)"/>
<path d="M52.8175 5.5202V19.9676C52.8175 20.1302 52.8174 20.2927 52.8152 20.4553C52.7883 22.956 52.5571 25.2518 52.1801 27.3517C50.479 26.4453 48.7285 25.6303 46.9376 24.9066C47.1418 23.3679 47.2541 21.7223 47.2541 19.9676V5.5202H52.8175Z" fill="url(#paint2_radial_250_87)"/>
<path d="M23.6921 18.6093C24.0736 18.6538 24.4529 18.6983 24.8322 18.7429V18.8854L23.6921 18.6093Z" fill="black"/>
<path d="M68.4551 29.9815L59.8508 32.333C57.4405 30.4402 54.8709 28.7835 52.1801 27.3516C50.479 26.4453 48.7285 25.6303 46.9376 24.9066C44.35 23.8578 41.6817 22.9938 38.955 22.3146L36.8723 21.8092L30.4404 20.2482V19.4109C32.5792 19.6492 34.7157 19.8407 36.8723 19.9186C38.1291 19.9609 39.3903 19.9654 40.6606 19.9164C42.5435 19.8429 45.1669 19.3285 47.2541 19.2951C47.7747 19.2862 48.264 19.3062 48.6993 19.3731C49.8618 19.549 51.2959 19.9409 52.8152 20.4553C56.0873 21.562 59.7543 23.2388 61.9424 24.5548C64.3123 25.9799 66.7562 27.817 68.4551 29.9815Z" fill="black"/>
<path d="M71.0786 37.508C71.0561 37.7374 70.54 38.0269 70.3268 38.185C69.2675 38.971 66.6799 40.7792 65.5601 41.2624C62.8423 42.4381 59.0496 42.5406 56.3094 43.9034C55.7529 44.1795 54.5028 45.1504 53.9912 45.1548L45.4564 42.3246L45.4138 42.3112C45.3465 41.2112 45.6584 40.1891 45.5956 39.049C45.5193 37.6706 45.039 35.8424 44.1974 34.2591C43.2526 32.4777 41.8478 31.0036 40.0479 30.8254C38.9527 30.7163 38.2144 31.0615 37.7386 31.6583C36.6457 33.0255 36.9442 35.7244 37.5007 37.3299L35.1847 35.6642C34.3835 32.6158 35.2879 30.0149 37.1147 28.8614C38.6587 27.8838 40.8648 27.944 43.2549 29.6475C43.9955 30.1752 44.6889 30.8588 45.3083 31.6382C46.8097 33.5198 47.8937 35.9649 48.2011 38.1137C48.2101 38.1694 48.2168 38.2473 48.2236 38.3408C48.2819 39.1425 48.2999 41.1332 48.5422 41.2379L53.383 42.3045C54.4041 41.9906 55.616 40.8482 56.6371 40.6745C57.4428 40.5387 58.5424 40.6144 59.4491 40.512C60.8988 40.3472 64.0946 39.8907 65.2302 39.1559C65.7217 38.8352 68.6503 36.6685 68.8635 36.3724C69.1553 35.9649 69.5188 33.9029 69.6468 33.7737C69.8981 33.7381 69.8398 33.7626 69.9116 33.9251C70.0619 34.2614 71.0965 37.321 71.0786 37.508Z" fill="black"/>
<path d="M18.398 9.31019L25.8219 11.5348L24.8322 12.0536V13.7148C23.6158 13.6881 22.3994 13.6458 21.1853 13.579L18.398 12.6971L1.57992 7.37957C1.42507 7.32612 1.36223 7.21256 1.28369 7.0834C0.758542 6.21496 0.419667 4.75864 0 3.79889L18.398 9.31019Z" fill="black"/>
<path d="M33.2143 13.7482C32.2897 13.7504 31.3651 13.7526 30.4404 13.7526V12.9176L33.2143 13.7482Z" fill="black"/>
<path d="M24.8322 22.4861C24.8322 22.7778 24.8367 23.0673 24.8434 23.3523L23.2478 22.544L18.398 20.9363L3.6042 16.0284C3.21371 15.7991 2.83219 14.6122 2.65041 14.1356C2.35193 13.3563 2.10956 12.5435 1.90533 11.7374L18.582 17.2465C19.7715 17.9412 20.9699 18.6226 22.1728 19.2929C24.307 20.4842 22.6822 20.2972 24.8322 21.464V22.4861Z" fill="black"/>
<path d="M33.0953 26.1893L31.3404 26.6435L30.4427 26.1893C30.4427 26.0668 30.4404 25.9443 30.4404 25.8218V24.5503C30.8377 24.773 31.2349 24.9979 31.6299 25.2228C32.1214 25.5034 32.7116 25.7773 33.0953 26.1893Z" fill="black"/>
<path d="M25.5391 29.3268C25.6648 29.9125 25.8084 30.4825 25.9655 31.0348L18.8446 28.6053L5.55666 24.0671L3.81067 19.6759L16.5914 24.076L18.4721 25.1805L25.5391 29.3268Z" fill="black"/>
<path d="M31.9059 33.0634L31.8072 33.03C31.8072 33.03 31.7982 33.0099 31.7959 32.9988L31.9059 33.0634Z" fill="black"/>
<path d="M35.1196 13.8707L41.2822 18.4668L48.4525 17.6584L40.3217 13.0378C37.8508 12.9955 37.595 13.884 35.1174 13.8684L35.1196 13.8707Z" fill="black"/>
<path d="M57.1443 32.2328L53.0284 33.4085C52.703 33.4508 51.3767 33.3328 50.6069 33.2215C50.3802 33.1903 50.2029 33.1569 50.1132 33.1302C49.6396 32.9854 48.2213 30.8121 47.7366 30.2821C47.2653 29.7677 46.7267 29.3201 46.1634 28.8993C45.1939 28.1778 44.1436 27.5409 43.2167 26.786C44.2917 27.0933 45.3689 27.4118 46.4394 27.7502C48.2146 28.3047 49.9763 28.9082 51.7066 29.5851C52.8489 30.0305 53.9755 30.5092 55.0819 31.0281C55.6362 31.2886 56.5069 31.656 56.9917 31.97C57.1061 32.0435 57.2049 31.9566 57.1443 32.2328Z" fill="black"/>
<path d="M60.9549 21.5709C62.3037 22.7043 63.8118 23.644 65.1224 24.8265C66.6395 26.1937 67.8469 27.846 69.2854 29.2711L67.3307 23.457L60.9527 21.5709H60.9549Z" fill="black"/>
<path d="M54.0495 35.4349C53.8969 35.642 54.6128 36.1185 54.7609 36.2076C55.7327 36.8021 57.2385 37.2341 58.336 37.5659L55.4746 35.1343L54.0518 35.4371L54.0495 35.4349Z" fill="black"/>
<path d="M35.0029 44.6694C35.0209 44.685 35.0366 44.6983 35.0523 44.7095L34.958 44.6917C34.958 44.6917 34.9737 44.685 35.0029 44.6694Z" fill="url(#paint3_radial_250_87)"/>
<path d="M52.8174 5.52021L47.373 8.79805L47.2541 8.86931L40.3239 13.0401L36.8723 15.1177V25.5502C36.8723 26.7215 36.9576 27.8237 37.1147 28.8614C37.2628 29.8523 37.476 30.7831 37.7386 31.6583C38.6183 34.5999 40.0569 36.9001 41.5134 38.6593C41.5336 38.686 41.556 38.7105 41.5762 38.735C42.8599 40.2693 44.3815 41.4962 45.425 42.3647C44.8595 43.0483 44.3209 43.6295 43.8384 44.1127L43.4299 44.5091L41.8163 46.0701L41.6929 45.9743C41.6929 45.9743 41.6794 45.9654 41.6548 45.9454C41.3967 45.7516 39.8414 44.5603 37.9698 42.5673C37.9518 42.5495 37.9339 42.5295 37.9159 42.5094C35.8108 40.2604 33.3175 37.007 31.8072 33.03C31.8027 33.0211 31.7982 33.0099 31.7959 32.9988C31.0082 30.9145 30.4921 28.6321 30.4427 26.1893C30.4427 26.0668 30.4404 25.9443 30.4404 25.8219V12.283L47.2159 3.4248L52.8174 5.52021Z" fill="url(#paint4_radial_250_87)"/>
<path d="M35.0523 44.7095C37.1753 46.4731 38.3333 47.5776 39.1704 48.2545L35.6717 52C35.6717 52 21.5579 45.7672 18.8446 28.6053C18.6718 27.5098 18.5461 26.3674 18.4721 25.1805C18.4227 24.3945 18.398 23.5862 18.398 22.7578V9.21891L38.2189 0L43.8204 2.09541L25.8219 11.5348L24.8322 12.0536V22.4861C24.8322 22.7778 24.8367 23.0673 24.8434 23.3523C24.895 25.5168 25.1419 27.5031 25.5391 29.3268C25.6648 29.9125 25.8084 30.4825 25.9655 31.0348C27.8484 37.6862 31.7443 41.9527 35.0029 44.6694C35.0209 44.685 35.0366 44.6984 35.0523 44.7095Z" fill="url(#paint5_radial_250_87)"/>
</g>
<defs>
<radialGradient id="paint0_radial_250_87" cx="0" cy="0" r="1" gradientUnits="userSpaceOnUse" gradientTransform="translate(43.0933 46.0211) scale(18.7638 18.6182)">
<stop stop-color="#3D6DFF"/>
<stop offset="1" stop-color="#0028A1"/>
</radialGradient>
<radialGradient id="paint1_radial_250_87" cx="0" cy="0" r="1" gradientUnits="userSpaceOnUse" gradientTransform="translate(48.9462 33.2393) scale(10.09 10.0116)">
<stop stop-color="#3D6DFF"/>
<stop offset="1" stop-color="#0028A1"/>
</radialGradient>
<radialGradient id="paint2_radial_250_87" cx="0" cy="0" r="1" gradientUnits="userSpaceOnUse" gradientTransform="translate(49.891 27.4251) scale(10.7071 10.624)">
<stop stop-color="#3D6DFF"/>
<stop offset="1" stop-color="#0028A1"/>
</radialGradient>
<radialGradient id="paint3_radial_250_87" cx="0" cy="0" r="1" gradientUnits="userSpaceOnUse" gradientTransform="translate(35.0052 44.6894) scale(0.0359072 0.0356272)">
<stop stop-color="#3D6DFF"/>
<stop offset="1" stop-color="#0028A1"/>
</radialGradient>
<radialGradient id="paint4_radial_250_87" cx="0" cy="0" r="1" gradientUnits="userSpaceOnUse" gradientTransform="translate(41.6301 24.7485) scale(17.1323 16.9993)">
<stop stop-color="#3D6DFF"/>
<stop offset="1" stop-color="#0028A1"/>
</radialGradient>
<radialGradient id="paint5_radial_250_87" cx="0" cy="0" r="1" gradientUnits="userSpaceOnUse" gradientTransform="translate(31.1092 26) scale(20.5929 20.433)">
<stop stop-color="#3D6DFF"/>
<stop offset="1" stop-color="#0028A1"/>
</radialGradient>
<clipPath id="clip0_250_87">
<rect width="186" height="52" fill="white"/>
</clipPath>
</defs>
</svg>
